<svg xmlns="http://www.w3.org/2000/svg" width="512" height="200" preserveAspectRatio="xMidYMid"><path d="M351.14 17.697l-.114-1.097-1.777.152.113 1.096 1.778-.15zm11.95 28.738l.038.605 1.248-.113c-.038-.378.113-.983.378-1.74l-.114-1.097c-.53.038-1.06.832-1.55 2.344zm-46.625 36.188c-.075-1.02-3.252-4.99-9.53-11.987-.113-1.285 2.042-3.214 6.466-5.747l12.63-11.004c2.836-3.593 4.5-9.416 4.992-17.508l-.152-1.853c-.49-5.596-4.537-10.096-12.213-13.537-4.538-3.063-12.706-4.765-24.504-5.067-9.756.832-22.5 4.3-38.192 10.474-4.31 3.1-9.226 6.202-14.747 9.302l.075.946c.34-.038.87-.227 1.475-.643.643-.076 1.02.227 1.06.832l.945-.492.454-.038.038.416c.038.492-3.366 3.177-10.248 7.98l.53.983-.454.038-1.135-.416c.038.34-.453.567-1.4.643l.038.416 1.097 1.36c-.34.038-.87-.113-1.588-.378-1.59.15-3.14.983-4.69 2.57l.643-2.798c2.306-9.945 3.894-18.756 4.726-26.394l-.113-.492c-1.588-1.02-3.14-2.458-4.576-4.273.038-1.172.038-1.852 0-2.004l-.113-.416-.454.114c-4.99 7.487-14.596 20.268-28.852 38.343-10.852 12.857-16.45 20.004-16.79 21.44-4.424 4.575-6.542 7.336-6.315 8.28-1.172.756-1.664 1.512-1.475 2.344-.34.076-.567-.037-.643-.378-1.9 3.063-4.69 5.03-8.432 5.9l-3.933.908c-.53.113-.794.49-.756 1.134l.113.492 1.475-.34.114.416-3.328 1.286-5.9 1.36-3.1.19c-.454.454 2.458-.037 1.324.227l-3.857.908c-2.345.53-3.63.34-3.857-.605l-.454.113c.076.416.113.72.038.983l-.227-.945-3.1.718c-.227-1.436-4.424-6.655-12.554-15.654-.15-1.74 2.722-4.274 8.584-7.563l16.562-14.56c3.706-4.764 5.9-12.403 6.618-22.915l-.227-2.458c-.643-7.41-6.013-13.386-16.11-18-5.975-4.046-16.714-6.202-32.217-6.542-12.857 1.097-29.647 5.672-50.293 13.65-5.672 4.12-12.138 8.205-19.398 12.25l.113 1.286c.492-.038 1.134-.302 1.928-.756.832-.076 1.286.302 1.362 1.06l1.285-.72.643-.038.038.605c.038.605-4.462 4.122-13.575 10.55l.718 1.135-.642.038-1.4-.492c.038.378-.605.643-1.928.756l.075.68 1.513 1.664c-.49.038-1.172-.114-2.042-.416-2.95.265-5.823 2.382-8.66 6.39l.718 1.134c2.458-2.27 3.895-3.403 4.31-3.44l.15 1.853c-.416.038-1.06.302-1.928.756l1.55 2.345c2.987-3.215 6.277-5.975 9.87-8.282 1.777.454 2.722 1.02 2.76 1.626l1.36-.113c9.756-7.223 19.4-12.44 28.966-15.655l.113 1.285c-1.777 2.647-2.987 4.01-3.63 4.084.076.908.378 1.702.945 2.383.152 1.626-4.197 12.592-13.008 32.86-20.003 47.116-36.793 81.98-50.443 104.518.037.453.302 1.058.794 1.815 3.365-.794 5.483-1.626 6.4-2.42l.72-.075.113 1.286 1.248-.114 1.286-.718c.038.378.454.567 1.323.49l.114 1.286c.113 1.248-.605 3.138-2.118 5.748-1.36 1.55-2.836 4.802-4.386 9.756l.037.605 1.248-.114c5.446-6.088 9.567-12.063 12.403-17.886 15.882-4.65 27.983-9.226 36.377-13.726 8.433-.72 14.86-2.95 19.248-6.618l-.076-.68-3.176.945-.72.076-.076-.68c6.202-.945 10.475-2.307 12.857-4.197 12.063-9.303 21.176-15.882 27.34-19.777 12.667-9.302 20.91-18.378 24.654-27.188l2.118-.492c1.777-.075 2.76-.113 3.025-.19-.076-.34.076-.53.416-.605 2.836-.302 1.475.19 3.3-.227l4.764-1.096c-.302.075-.416.227-.34.53l.718-.454c-.15 0-.264-.037-.378-.075l.794-.19-.378.227c.53.075 1.097.037 1.74-.114l.34 1.4-21.667 34.45-4.803 6.012-2.344 7.865.454-.113 2.344-.983-.756 3.063.227.907.642.794c-.302.076-.415.265-.34.605l.114.492.983-.227c1.437-1.248 2.042-2.382 1.815-3.403 1.55.264 2.57.378 3.1.227l.113.49c-.945.227-1.437.983-1.513 2.27l.114.492.53-.114c7.866-8.584 27.15-37.965 42.617-57.893-.492-2.155 7.562-5.143 24.2-9l.53-.113c.605 2.61-.68 8.924-3.857 18.945-2.042 6.05-3.025 9.378-2.874 9.907-2.647 8.054-3.895 12.403-3.744 13.084l-5.9 19.322c-3.82 9.908-6.73 20.307-8.772 31.273.34-.076.87-.038 1.626.15l.83-.72c.076.34.303.454.643.378l-.34-1.4 2.57-.075c.756-.19 1.4-1.135 1.93-2.874-.114-2.61.416-4.008 1.588-4.31 1.588-6.2 2.57-9.302 2.912-9.416 1.474-6.163 2.57-9.68 3.29-10.55 2.232-8.016 3.857-12.138 4.916-12.403l.227.984-1.626 4.197c-2.836 12.592-5.7 22.537-8.62 29.835l.832 3.63.53-.113c7.033-15.126 17.167-45.074 30.364-89.846.38-3.933 2.27-6.996 5.635-9.15l-.757-.794-.113-.416c1.513-.34 2.57-.945 3.176-1.777-.075-.34-1.4-.832-3.97-1.513l6.58-28.21c1.436-1.286 2.268-1.966 2.533-1.966l.114 1.437c-.34.037-.87.226-1.475.642l1.248 1.778c2.268-2.458 4.726-4.576 7.41-6.353 1.36.378 2.042.832 2.118 1.286l.983-.076c7.487-5.483 14.823-9.416 22.045-11.798l.076.945c-1.323 2.004-2.23 3.025-2.723 3.063.076.68.265 1.286.605 1.815.114 1.248-3.138 9.567-9.793 24.995-15.202 35.734-27.945 62.166-38.306 79.334.038.34.265.794.68 1.4 2.533-.605 4.16-1.248 4.802-1.853l.454-.038.076.946 1.058-.076.946-.492c.037.265.378.38 1.02.34l.075 1.02c.076.907-.453 2.344-1.626 4.3-1.096 1.173-2.23 3.63-3.44 7.374l.038.492.983-.076c4.122-4.613 7.26-9.15 9.416-13.613 12.062-3.554 21.25-6.995 27.604-10.4 6.466-.567 11.344-2.23 14.672-5.03l-.038-.49-2.458.718-.53.038-.038-.492c4.69-.68 7.98-1.74 9.756-3.138 9.15-7.034 16.07-12.063 20.76-15.012 14.596-10.626 21.402-20.836 20.57-30.63zm-2.495.643l.34 3.82c-.454.946-.945 1.437-1.4 1.475l-.567-6.504c1.058.378 1.588.756 1.626 1.2zM27.642 52.486l-.643.037-.113-1.172 2.61-.227.038.605c-.416.038-1.06.265-1.89.757zM14.9 179.956c-1.513-.68-2.874-.945-4.046-.832l-.152-1.853c-.075-.718.34-1.2 1.248-1.4.832-.075 1.324.53 1.4 1.74 2.194-2.685 3.404-4.046 3.63-4.084l1.4.567c-.454 3.782-1.626 5.7-3.48 5.86zM151.067 37.51c-.643.076-1.93-1.928-3.782-5.9l-.113-1.172c1.2-.113 2.458 1.853 3.78 5.9l.114 1.172zm-1.816-14.104l-.53 1.248-18.49-7.714c12.327.416 18.68 2.57 19.02 6.466zM71.166 90.45l-2.61.227-.114-1.173 2.61-.226.114 1.172zM69.048 50.18l.643-.038.15 1.853c-.605.038-1.4.945-2.382 2.685l-.114-1.286c1.173-1.4 1.778-2.458 1.702-3.214zM63.565 63.11l.227 2.458-.643.038-.227-2.458.643-.038zm-2.874 4.614l1.248-.114c-.113 2.042-.68 3.14-1.7 3.214l-.643.038c.794-1.36 1.172-2.42 1.096-3.138zm-2.155 6.428l.718-.076.038.605-1.172 1.967-1.248.113-.038-.605c1.248-.113 1.815-.756 1.702-2.004zm-2.118 5.786l-.378 3.1-.643.038-.264-3.063 1.285-.075zm-21.213 60.313c-.832 4.235-1.74 6.4-2.685 6.466l-.038-.605c-.227-2.08.68-4.046 2.723-5.86zm-3.895 8.432l.038.605c.075.832-.303 1.324-1.135 1.36l-.037-.605c-.076-.718.302-1.172 1.134-1.36zm-1.134 17.508l1.966-.19.075.68c-.49.037-1.134.302-1.928.756l-1.248.113c-.076-.642.34-1.134 1.134-1.36zm55.964-17.28c-11.042 5.445-17.546 9.15-19.474 11.08-11.95 4.16-17.886 6.73-17.773 7.752-10.625 4.198-17.62 7.3-20.986 9.227-.794.076-1.93-.227-3.44-.908-.19-2.155.794-3.894 2.873-5.293 1.853-.152 3.63.113 5.332.83 1.967-1.02 5.408-2.155 10.286-3.365l-.114-1.286-3.932.34c.49-.68 4.272-2.458 11.38-5.332l1.967-.19.038.605c-3.366.302-5.22 1.286-5.635 3.063.076.794.53 1.134 1.362 1.06 2.533-1.59 3.78-2.534 3.743-2.8 4.803-.907 18.075-7.865 39.818-20.835l.114 1.172c.038.567-1.815 2.155-5.56 4.878zm-33.352 10.966c3.177-.265 5.9-1.55 8.168-3.78.907-.076 1.4.264 1.437 1.058-1.55.152-4.538 1.437-8.886 3.933l-.643.038-.076-1.248zm53.81-41.33L89.92 131.744c-12.403 8.13-19.058 12.213-20.003 12.29-19.74 10.853-32.028 16.487-36.793 16.903l-.718.075c.605-2.23 9.377-20.192 26.394-53.998 7.487-.643 19.285-4.12 35.356-10.474l3.932-.34c8.13-.718 14.218.87 18.227 4.652l.226 2.457c-3.025 8.698-6.352 13.765-9.945 15.24zm-32.595-18.34l2.685-.227.037.605-2.684.227-.038-.605zm37.7-6.39l1.967-.19c1.815.87 2.76 1.626 2.836 2.307l.037.605c-1.74.15-3.365-.756-4.84-2.723zm5.332-30.364c-1.74 2.08-6.504 5.634-14.294 10.625-2.57.227-12.138 3.933-28.7 11.193a5.24 5.24 0 0 0-2.647-.453l-.114-1.173c-.19-2.382.87-5.37 3.214-9 1.286-6.807 2.685-10.702 4.236-11.647L92.53 31.953c-.152-1.93 2.798-3.404 8.848-4.425l1.966-.19.152 1.778 11.08-1.55c10.966-.945 16.676 1.286 17.13 6.618l1.248-.114-.265-3.138 1.36-.114c3.214 1.778 4.954 3.933 5.18 6.466.15 1.74-.794 3.895-2.8 6.467-.83.075-1.323-.53-1.4-1.74l-1.36.114-.302 3.78c-5.56 8.32-9.605 12.592-12.1 12.82-2.27 3.14-3.668 4.69-4.235 4.727zm8.47 21.743c-1.134-.757-2.042-1.097-2.722-1.06l-.152-1.853 1.248-.113 2.76 1.626c.113.87-.265 1.323-1.135 1.4zm8.773 10.398c1.2.492 1.93 1.02 2.08 1.513l-.605.15.038.038c-.114 0-.265.038-.38.076l-.907.718-.227-2.496zm.832 5.22l-.113-.492 1.588-.378.113.492-1.588.378zm3.82 4.273c1.626-.265 2.42-.378 5.445-1.06l.114.492-5.748 1.323c.076-.265.15-.53.19-.756zm5.597 2.382c-2.42.227-1.89-.076-5.748.794l-.114-.49 4.803-1.55 2.307-.53.226.907c-1.02.227-.264.227-1.474.87zm5.105-1.2c-.568.15-1.02-.113-1.286-.756l1.475-.34c.642-.15 1.058.114 1.2.757l-1.4.34zm13.84-14.9l-.113-.49 2.382-.567.227.907-2.496.15zm14.786 90.678c.15-.68.19-1.172.113-1.513l.53-.113c.642-.15 1.02.076 1.172.68l.113.49-1.928.454zm10.36-86.783l-1.06-.19c-1.702.68-3.14 1.172-4.31 1.437l-.983.227c-.567.15-1.02-.076-1.248-.68l6.92-1.588 2.27-1.06.756.87c-1.097.227-1.89.567-2.344.983zm5.33-1.702l-.113-.49c.34-.076.794-.34 1.286-.832l4.915-1.134.114.49c-2.61.643-4.69 1.286-6.202 1.966zm.757-9.945c-.34.076-.794.38-1.362.832-.075-.34-.756-.34-2.042-.037-.226-.946 3.404-2.27 10.93-4.01l1.058-.227.227.908-8.8 2.533zm13.235-14.293c-.53 6.012-2.647 9.416-6.39 10.285l-.113-.49-3.328 1.285-1.475.34c-.756.19-1.437.15-2.042-.038l-.302-1.324c-.114-.49 4.69-7.147 14.445-19.928l1.134.2c.416 1.74-.227 4.953-1.928 9.68zm23.406-20.042l-.453.038-.076-.945 1.966-.19.038.49c-.34.076-.832.265-1.475.605zm-9.642 96.842c-1.135-.53-2.156-.756-3.025-.68l-.114-1.437c-.038-.49.265-.832.908-1.02.643-.075 1.02.378 1.096 1.362 1.626-2.08 2.534-3.14 2.723-3.14l1.02.416c-.378 2.874-1.248 4.386-2.61 4.5zM325.086 37.965c-.492.038-1.437-1.475-2.912-4.538l-.075-.945c.945-.076 1.928 1.4 2.91 4.424l.076 1.06zm-1.36-10.815l-.454.983-13.99-5.86c9.34.303 14.18 1.93 14.445 4.878zm-59.33 50.936l-1.967.19-.075-.946 1.966-.15.076.908zm-1.626-30.592l.53-.038.113 1.437c-.49.038-1.096.72-1.815 2.042L261.52 50c.87-1.097 1.285-1.93 1.248-2.496zm-4.122 9.832l.15 1.853-.53.038-.152-1.853.53-.038zm-2.23 3.517l.983-.076c-.113 1.588-.53 2.42-1.248 2.496l-.53.037c.567-1.058.832-1.9.794-2.457zm-1.588 4.84l.454-.038.037.49-.87 1.513-.984.076-.037-.492c1.02-.076 1.474-.605 1.4-1.55zm-1.588 4.386l-.34 2.42-.454.038-.19-2.382.984-.076zm-16.147 45.868c-.643 3.177-1.323 4.803-2.042 4.878l-.038-.416c-.113-1.588.567-3.1 2.08-4.462zm-2.987 6.39l.037.416c.076.68-.226 1.06-.907 1.096l-.038-.49c-.038-.492.265-.832.908-1.02zm-.832 13.3l1.512-.113.038.49c-.34.038-.87.227-1.475.568l-.983.075c-.038-.53.265-.87.908-1.02zm42.465-13.12c-8.32 4.122-13.273 6.92-14.823 8.357-9.076 3.176-13.575 5.143-13.5 5.937-8.054 3.214-13.348 5.52-15.844 6.995-.605.038-1.475-.19-2.61-.718-.15-1.626.605-2.95 2.193-3.933 1.437-.113 2.798.076 4.046.605 1.513-.756 4.122-1.588 7.828-2.533l-.076-.946-3.1.227c.38-.53 3.3-1.89 8.698-4.084l1.512-.113.038.416c-2.57.227-4.008.983-4.31 2.344.038.605.416.908 1.06.832 1.89-1.248 2.798-1.966 2.798-2.193 3.63-.643 13.69-5.937 30.214-15.844l.075.945c.038.416-1.36 1.626-4.197 3.706zm-25.335 8.32c2.457-.227 4.537-1.172 6.277-2.836.642-.076 1.02.227 1.058.832-1.134.113-3.365 1.06-6.73 2.874l-.53.038-.075-.908zm40.914-31.423l-12.592 10.134c-9.416 6.163-14.52 9.264-15.315 9.34-14.974 8.243-24.276 12.516-27.944 12.82l-.53.038c.453-1.702 7.147-15.353 20.08-40.99 5.634-.49 14.558-3.176 26.8-8.016l3.063-.265c6.163-.53 10.777.68 13.802 3.592l.15 1.853c-2.307 6.504-4.802 10.323-7.525 11.496zm-24.73-13.916l1.966-.19.038.492-1.966.19-.038-.492zm28.625-4.878l1.513-.113c1.4.68 2.117 1.286 2.155 1.777l.038.416c-1.324.113-2.572-.567-3.706-2.08zm3.97-23.028c-1.323 1.588-4.915 4.3-10.776 8.092-1.967.19-9.227 2.987-21.78 8.432-.605-.227-1.286-.302-2.005-.264l-.075-.946c-.15-1.815.643-4.084 2.382-6.844.983-5.218 2.08-8.13 3.214-8.81l10.55-23.596c-.113-1.4 2.118-2.533 6.656-3.403l1.512-.113.114 1.437 8.394-1.248c8.32-.72 12.668.945 13.008 5.03l.983-.076-.19-2.27.984-.075c2.42 1.323 3.705 2.912 3.857 4.802.113 1.362-.568 3.025-2.005 4.954-.642.075-1.02-.378-1.096-1.36l-.983.075-.303 2.836c-4.197 6.39-7.26 9.68-9.19 9.832-1.7 2.307-2.76 3.48-3.252 3.517zm4.425 15.73l-.114-1.437.983-.075 2.118 1.285c.038.605-.265.946-.908 1.02-.907-.567-1.588-.832-2.08-.794zm-176.024 91.85l-.983.227-.832.718c.15.605.53.832 1.172.68s.908-.53.757-1.134l-.114-.492zm-3.743-7.45l.113.49c.643-.15.907-.53.756-1.134l-.113-.492c-.605.152-.87.53-.756 1.135zm26.62-63.34l1.135-.264-.227-.983-1.134.264.226.983zm343.124 28.815c-11.496 2.57-12.933 2.117-15.353 2.306l.076.946 1.06-.076.567-.038-.15-.113 1.247-.492c11.382-1.248 12.706-.794 12.592-2.08l-.037-.453zm-61.902 8.205l.076.946h.15l-.075-.946h-.152zm-7.11-24.92l-1.02-.34c-.832 2.23-1.248 3.554-1.2 3.932l.038.416c.794-.038 1.513-1.4 2.193-4.008zm71.355 16.525l.076.945 1.663.302-.075-.945-1.664-.302zm-78.237 9.566l-2.57-.302-.454.983.038.492 15.314-1.286-.075-.945-12.252 1.058zm-6.958-33.54l-.037-.492-.53.038-.945.605.53.907c.72-.075 1.06-.416.983-1.058zm92.455 17.016l.72-.076c.416-.038.605-.378.567-.983l-.416-.908c-2.61.227-3.82.34-5.937 1.513l-.038-.49-3.138.302c-.076-.945-.34-1.437-.756-1.4l-1.626.15c-1.89.15-2.8.076-3.744.794-.038-.34-.15-.49-.34-.49l-1.815.15-1.06.605c-.038-.34-.15-.492-.34-.492l-.642.568-.038-.492-2.534-.19-.605.038.076.945 1.286.34 1.2-.075c.416.265.87.34 1.4.302l1.06-.53.037.416c-5.936 1.475-5.9 1.2-9.983 1.89-.453-.303-.794-.454-1.02-.416l-.075.075c-.454-.038-.72-.34-.756-.832l2.117-.264c.15 0 .265.15 1.437.378 1.702-.832 1.777-1.173 2.685-1.248l-.076-.946c-5.823 1.135-3.48.38-10.777 1.02l-.34.038-.076-.945c9.378-1.134 6.24-.492 9.454-1.4.038.34.15.49.34.49.378-.378.794-.567 1.286-.642l.643-.038c3.29-.265 4.386.378 10.9-1.437l.038.416 1.06-.53.983-.075c-.076-.946 1.36-1.097 1.853-1.135l-.076-1.02c-11.42 2.307-14.407 1.664-17.583 2.572l-.038-.416c-2.987.53-3.1.302-3.857.34-.227.038-.567.227-.946.605-.037-.34-.15-.492-.378-.492-.113 0-.15.038-.19.038l-9.68 1.588c-.038-.264-.15-.415-.378-.378-5.03 1.06-3.668 1.248-10.4 1.853-.303.038-.718.19-1.248.53-.038-.265-.19-.416-.53-.38l-4.122.34-2.76.68c-.038-.264-.19-.415-.53-.378-1.55.416-2.91.68-4.008.757h-.076c-.68.075.34-.19-.19-.416l-.832.49c-1.2.114-.567-.075-4.726-.038-7.298.908-6.504 1.02-7.298 1.06l-2.723-.19c.038.265-.113.454-.416.454-3.1-.416-4.69-.908-4.727-1.475.416-2.95 1.135-4.462 2.156-4.538l.53-.037-.454.983.53-.038c.983-.53 1.437-1.02 1.4-1.475l-.076-1.02-.983.076-.076-.945c-.075-.72.038-1.362.303-1.89l2.23-3.592.076.945 1.058-.076-.075-.945-.605-.87c.794-.68 1.4-1.06 1.9-1.096l-.037-.492-1.437.114-.114-1.437c2.874-5.975 4.235-9.454 4.16-10.437l1.02.416c.643-.038.945-.416.907-1.097l-.983.076-.038-.416c-.075-.72.076-1.4.378-2.004 1.55-1.626 2.27-3.252 2.118-4.954.303-.038.454.114.492.454 1.323-.756 2.344-2.76 3.1-6.088 2.345-4.235 5.672-12.705 10.02-25.373 8.32-22.386 7.98-24.768 9.15-30.062l-.983.075c.075.68-.076 1.324-.378 1.93-.68-.265-1.2-.416-1.588-.378l-.038-.416c-.152-1.93.643-4.235 2.458-6.958l.453-.038.832 3.252.983-.075c-.037-.227.227-1.513.757-3.895-.038-.492-.416-.794-1.173-.832l-.945.605c-.075-.68-.038-2.458.076-5.294l-.492.038c-.832-.832-1.248-1.513-1.286-2.08l-5.407.53c-.038-.378-.227-.945-.605-1.663-.038-.492 1.172-.984 3.668-1.475l1.097.416 1.02-.605c.037.34.226.49.604.454l1.02-.605c.038.34.227.49.606.453l.49-.037-.076-1.097c-.756.076-2.76.076-5.936-.038l-1.02.68-.038-.605-43.22 3.592c-.454.038-2.23 0-5.37-.076.038.416-.34.643-1.096.72l-1.097-.492-3.706.946c-.87.075-2.344.037-4.386-.19-.567.453-1.248.718-2.08.794-.454.037 5.407-.303 10.852-.68-.567.454-1.436.718-2.646.832-.832.076-1.55-.038-2.156-.378-.832.378-3.516.983-8.016 1.9l-1.097-.415-17.697 2.722c-.68-.34-1.475-.454-2.382-.378-.946.076-2.534.416-4.727 1.02l-8.546 3.554.643 1.06c.416-.038 1.02-.264 1.74-.68l3.026.264-.38 2.836c-2.798 1.248-4.424 3.1-4.878 5.446-4.197 1.852-6.277 3.176-6.277 3.97l.038.492.643-.038 1.134-.605 1.324 1.588.19 2.193c.075.68-6.996 15.542-21.138 44.583-12.252 27.982-18.68 43.297-19.285 46.057-4.197 1.172-6.618 2.874-7.336 5.143.076.718 1.323 1.2 3.743 1.4l.114 1.096-1.097 1.815.19 2.194c.114 1.134 3.177 2.004 9.19 2.61-.038-.378.152-.605.567-.643.114 1.36-.264 4.008-1.134 7.94l.643-.038c2.495-3.403 3.668-5.748 3.554-7.033l.53-.038c.605-.038 1.248.643 2.004 2.117-.756.303-3.403 6.315-7.94 18.076l.643 1.058.643-.037c5.558-14.067 9.037-21.857 10.474-23.332l37.852-3.857 1.134-.68c.038.378.265.567.68.53l1.172-.113 1.135-.68c.037.378.264.567.68.53l13.575-1.172c3.593-.302 5.294-1.4 5.143-3.252-.038-.49 2.08-1.06 6.353-1.664.416-.038 1.02.076 1.853.34-.038-.34 2.117-.68 6.428-1.06.114-2.27.832-3.48 2.118-3.592l-.114-1.097c-1.2.113-2.57.416-4.16.945-2.836-.15-4.65-.378-5.408-.643-.756.416-1.323.643-1.74.68l-9.454.303-1.134.605c-.038-.34-.265-.492-.68-.454l-.53.038-1.2.605c-.038-.34-1.02-.605-2.988-.87l-1.21.718-2.345.19-.038-.605c12.176-1.323 18.19-2.987 18.037-4.953.795-.076 1.21.302 1.286 1.097l3.555-.908-.114-1.097-29.154.794c.037.38-.152.605-.567.643l-3.555-.302c-.908.075-1.664.34-2.27.794l-1.323-.492c-3.668.303-6.39.757-8.206 1.324-2.496-.19-5.256-.152-8.32.113l-6.542.567-3.025-.34c-.15-1.928 3.592-11.42 11.306-28.436 2.232-5.748 4.273-9.34 6.24-10.7.416-.038 1.02.113 1.853.453l4.65-1.588 2.382.378c4.008-.34 8.66-1.474 13.99-3.44 1.324-.113 2.307-.037 3.025.265l3.555-.832 10.588-.907c4.5-.378 9.377-1.362 14.67-2.988l-.113-1.096c-1.966.19-2.987-.15-3.063-.946-.113-1.474-1.55-2.08-4.31-1.853l-.113-1.096 2.912-.832 7.638-.643-.114-1.096c-.302.037-1.852 0-4.726-.114l-.114-1.172 2.95-.265c.794-.075 1.134-.454 1.06-1.2-3.97.114-5.975-.075-6.013-.605-27.68 1.36-41.557 1.626-41.633.756-.416.038-.983.303-1.74.757l-.72-1.135c7.336-15.58 11.647-23.444 12.895-23.558.037.605-.265 1.588-.946 2.912l.038.49 1.172-.113c2.912-6.958 5.37-10.55 7.412-10.7 8.697-.757-1.2-1.324 17.394-4.235.757.34 1.286.49 1.664.453 7.298-1.474 17.47-3.025 30.516-4.613l-.076-1.097-6.958.643-.075-1.096c.832-.076 1.512-.34 2.08-.794l.037.605c.38-.038.908-.303 1.59-.757 1.2-.113 2.117 0 2.76.34 2.42-.643 4.386-1.02 5.823-1.173l4.35-.416c1.06-.68 1.55-1.285 1.513-1.852l-.038-.492c-1.097.113-2.345.038-3.82-.227-.038-.605.264-1.02.983-1.2l8.092-.756 3.706-.946c.037.416.227.568.53.568.378-.038.908-.303 1.588-.757.19.038.416.038.605.076-.49 1.02-1.06 2.496-1.626 4.424l-1.06.076c-.075-.72-.264-1.36-.605-1.93l-.53.038c-9.832 27.377-14.218 40.12-23.293 61.145-1.664 5.37-3.063 8.357-4.273 9 .038.605.416.907 1.06.832.226 2.647-.38 5.256-1.853 7.827-4.198 12.1-6.996 18.718-8.433 19.928l.945 5.7c.038.605-.264.945-.907 1.02l-.983.076c-.152-1.59-.72-2.345-1.74-2.23l-.53.038c-1.286 2.004-2.27 4.3-2.912 6.995l.983-.076c1.324-.87 1.93-1.9 1.815-3.063l1.967-.19 1.134.416c-.907 1.437-1.323 2.572-1.248 3.44l.53.908-1.286 3.025.038.492c1.134-.114 2.382.264 3.706 1.058.907-.075 1.9-.49 2.987-1.2 1.134-.113 5.37-.15 12.668-.15l3.667-1.248c4.463-.038 5.18.076 9.038-.264l1.588-.152.832-.567.038.492c4.046-.34 4.31-.076 7.487.302l.038.492-2.23.19.075.945c.68-.075 1.286-.265 1.778-.68.567-.038.907.264.945.945-.907.076-1.928.302-3.063.68l-.983-.34c-1.55.416-1.2.53-2.27.605l-1.55-.302c.038.264-.114.453-.378.453.037.606.378.908.945.87l1.588-.15 8.28-.72 3.14-.68c.038.265.15.416.416.378l1.512-.567 2.837-.227c2.193-.19 2.155-.34 6.92-1.097-.037-.302.076-.416.303-.453l.038.415c7.752-1.323 8.243-1.4 9.49-1.815l.113.227c1.93-.453.832-.34 1.362-.718.038.34.15.49.34.49l1.36-.113-.075-1.02-2.76-.038-.037-.075c-.114.037-.2.037-.303.075h-.378v.076c-1.853.378-1.89.113-3.1.227l-6.92.378-.038-.492 3.857-.53 1.4-.114.795-.567.037.492c5.446-.454 7.374.907 32.558-4.462 1.36-.114 1.248-1.248 2.118-3.593-.454.038-.908-.075-1.324-.302-2.08.794-3.176.416-7.184 1.06-.34.038-.605-.265-.72-.87l-.038-.416 3.857.113c.72-.075 2.118-.19 4.198-1.36 0 .34-.757.53-.303.492zm-186.195 2.987l-1.778.15c-.075-.718.87-3.44 2.836-8.092l1.173-.113c.038 1.096-.68 3.78-2.23 8.054zm2.155-8.62l-.038-.492c-.038-.605.34-1.02 1.173-1.2l.037.49c.038.72-.34 1.135-1.172 1.21zm23.634 18.264l.038.49-2.95.265-.038-.492 2.95-.264zm-3.555-.303c.038.605-.87 1.286-2.836 1.966l-3.63-.264-1.172.113-.113-1.096 7.75-.72zm23.9-110l-1.778.15-.037-.605c-.038-.605.302-1.02 1.058-1.2l.643-.038 1.2.49c.038.72-.302 1.135-1.096 1.21zm27.037-5.294l.567-.038.075 1.096-1.626.152c-.037-.605.265-1.02.984-1.2zm-6.807 2.382l-2.685-.303-.038-.49c3.517-.303 4.69-.68 6.845-1.286.038.416.416.567 1.096.492l.076 1.096-1.06.114c-.832.075-1.55-.038-2.155-.378-.643.416-1.324.68-2.08.756zm3.366 9.794l-.038-.492 4.348-.416.038.492-4.348.416zm4.65-3.782l-.038-.605 2.117-.19.038.605-2.117.19zm.49-7.41l-.567.038.492-1.173 4.84-.453.038.605c-1.248.113-2.874.453-4.803.983zm2.458 10.436l-.076-1.096 2.118-.19c.72-.076 1.097.264 1.135 1.02l-3.177.264zm12.82-17.47l-2.723.757-.49.037c-1.286.114-2.95.076-4.916-.113 3.517-.227 6.882-.492 8.13-.68zm-2.912 12.1l.038.49-3.743.34-.038-.492 3.743-.34zm6.126 2.91c-.038-.453-.756-.756-2.23-.907l-3.743 1.06-2.874.113c-.643-.454-.983-.756-1.02-.983l3.328.19 7.487-1.2 3.82.15.038.605c-1.89.19-3.48.53-4.803.983zM448.89 12.1c.453.038.756.038.87.038 1.324-1.285 2.8-2.306 4.5-3.025-1.36 5.975-3.48 10.4-6.4 13.273L445.75 21.1c1.777-4.5 2.836-7.487 3.14-9zm-6.504 11.156l.53-.038c-.72 1.36-1.36 2.08-1.89 2.117l-.113-1.437c.34 0 .832-.227 1.475-.642zm-4.198 10.02c1.02-4.084 2.004-6.4 2.912-6.995l.038.49c-.53 3.782-1.362 5.786-2.458 5.937l.19 2.382c-.908 1.286-1.324 2.27-1.286 3.025l-.53.038-.303-3.3c.605-.075 1.097-.605 1.437-1.588zm-1.626 5.445c.038.568-.34 1.89-1.096 3.933l-.53.038-.113-1.437c.718-1.664 1.323-2.496 1.74-2.534zm-30.515 88.56l-.038-.415.983-.076.113 1.437c-.53.038-.907-.265-1.058-.946zm43.6 1.135c-.038-.34-.19-.492-.53-.454l-2.458.227-.038-.492h.227l5.823-.49.038.49c-1.702.076-2.723.34-3.063.72zm-2.912-1.2c.227.113.114.227 0 .302-.113-.037-.264-.15 0-.302zm.303-6.807l-3.252.265-.038-.492 2.95-.264 2.572-.643c.038.302.19.416.53.378 3.063-.53 2.76-.68 4.235-.794.492-.038.795.265.832.87l-7.827.68zm11.382-.983c-1.815-.19-1.93-.34-3.214-.227l-.038-.416 2.91-.264.038.416c-.302.038.794.113.303.49zm.227-.53l-.038-.416 1.588-.15.038.416-1.588.15zm3.516-.303l-.037-.416c.264-.037.642-.226 1.134-.605.794-.075 1.2.454 1.286 1.06l-2.383-.038zm4.5-.567l-.038-.49 1.93-.152.038.492-1.93.15zm2.685-.227c-.038-.567.19-.907.68-.983l.642.832c-.037-.265.076-.416.303-.454l.492.908-2.118-.303zm-28.55 12.328l-.076-.946-.303.038.076.945.303-.037zm66.44-17.206c.302-.19.453-.378-.265-.49-.34.378.378.49-.378.53l.037.34c.076-.075.265-.19.416-.302l-.416.34v.038l-.794 1.02 1.588-.567h.2l-.076-.946-.302.038zm2.76 2.156l-.303.038.076.945 2.23-.19c-.038-.605-1.513-.794-2.004-.794zm-3.44-1.664l.038-.038v-.038s-.038.038-.038.076z"/><path d="M361.387 43.4l.038.605 1.248-.113c-.038-.378.113-.983.378-1.74l-.113-1.096c-.53.038-1.06.832-1.55 2.344zm-11.95-28.738l-.113-1.097-1.778.15.114 1.097 1.777-.15zm-34.675 64.926c-.076-1.02-3.252-4.99-9.53-11.987-.114-1.285 2.042-3.214 6.466-5.747l12.63-11.004c2.836-3.593 4.5-9.416 4.99-17.508l-.15-1.853c-.492-5.597-4.538-10.096-12.214-13.537-4.538-3.063-12.706-4.765-24.503-5.068-9.756.832-22.5 4.31-38.192 10.475-4.31 3.1-9.227 6.2-14.748 9.302l.076.946c.34-.038.87-.227 1.475-.643.642-.076 1.02.227 1.058.832l.946-.492.453-.038.038.416c.038.492-3.365 3.176-10.247 7.98l.53.983-.454.038-1.134-.416c.038.34-.454.567-1.4.643l.038.416 1.096 1.36c-.34.038-.87-.113-1.588-.378-1.588.15-3.14.983-4.69 2.57l.643-2.798c2.307-9.945 3.895-18.756 4.727-26.394l-.114-.492c-1.588-1.02-3.138-2.458-4.575-4.273.038-1.172.038-1.853 0-2.004l-.114-.416-.453.114c-4.992 7.487-14.597 20.268-28.852 38.343-10.853 12.857-16.45 20.003-16.8 21.44-4.424 4.576-6.542 7.336-6.315 8.282-1.172.756-1.664 1.512-1.474 2.344-.34.076-.568-.038-.643-.378-1.89 3.063-4.69 5.03-8.433 5.9l-3.933.907c-.53.114-.794.492-.756 1.135l.114.49 1.474-.34.114.416-3.328 1.286-5.9 1.36-3.1.19c-.454.454 2.457-.038 1.323.227l-3.857.908c-2.344.53-3.63.34-3.857-.605l-.454.113c.076.416.114.718.038.983l-.227-.945-3.1.718c-.226-1.437-4.424-6.655-12.554-15.655-.15-1.74 2.723-4.273 8.584-7.562l16.562-14.56c3.706-4.764 5.9-12.403 6.618-22.915l-.227-2.458c-.643-7.41-6.012-13.386-16.11-18C134.77 8.206 124.03 6.05 108.526 5.7 95.67 6.806 78.88 11.382 58.233 19.36c-5.672 4.12-12.138 8.205-19.398 12.25l.113 1.286c.492-.038 1.135-.302 1.93-.756.832-.076 1.286.302 1.36 1.06l1.286-.72.643-.038.037.605c.038.605-4.462 4.122-13.575 10.55l.72 1.135-.643.038-1.4-.492c.038.378-.605.643-1.93.756l.076.68 1.512 1.664c-.49.038-1.172-.114-2.04-.416-2.95.264-5.824 2.382-8.66 6.4l.72 1.135c2.458-2.27 3.894-3.403 4.3-3.44l.152 1.853c-.416.037-1.06.302-1.93.756l1.55 2.344c2.987-3.214 6.277-5.974 9.87-8.28 1.777.454 2.723 1.02 2.76 1.626l1.362-.113c9.756-7.223 19.398-12.44 28.965-15.655l.114 1.285c-1.778 2.647-2.988 4.01-3.63 4.084.076.908.38 1.702.946 2.383.15 1.626-4.198 12.592-13.008 32.86C30.44 121.307 13.65 156.17 0 178.708c.038.454.303 1.06.794 1.815 3.366-.794 5.483-1.625 6.39-2.42l.718-.075.114 1.285 1.247-.113 1.286-.718c.038.378.454.567 1.324.49l.113 1.286c.113 1.248-.605 3.138-2.118 5.747-1.36 1.55-2.836 4.803-4.386 9.757l.038.604 1.248-.113c5.445-6.088 9.567-12.063 12.403-17.886 15.882-4.65 27.982-9.227 36.377-13.726 8.432-.72 14.86-2.95 19.247-6.618l-.076-.68-3.176.945-.72.076-.075-.68c6.2-.945 10.474-2.307 12.857-4.197 12.062-9.303 21.175-15.882 27.34-19.777 12.668-9.302 20.91-18.378 24.655-27.188l2.117-.492c1.777-.075 2.76-.113 3.025-.19-.075-.34.076-.53.416-.605 2.836-.302 1.475.19 3.3-.227l4.765-1.096.794-.2-.378.227c.53.076 1.096.038 1.74-.113l.34 1.4-21.667 34.448-4.802 6.013-2.345 7.865.454-.113 2.344-.983-.756 3.063.227.907.643.794c-.303.076-.416.265-.34.605l.114.492.983-.227c1.437-1.248 2.042-2.382 1.815-3.403 1.55.264 2.57.378 3.1.227l.113.49c-.945.227-1.437.983-1.512 2.27l.113.49.53-.113c7.865-8.584 27.15-37.965 42.616-57.893-.492-2.155 7.563-5.143 24.2-9l.53-.113c.605 2.61-.68 8.924-3.857 18.945-2.042 6.05-3.025 9.377-2.874 9.907-2.647 8.054-3.895 12.403-3.743 13.083l-5.9 19.323c-3.82 9.908-6.73 20.306-8.773 31.272.34-.075.87-.037 1.626.152l.832-.72c.075.34.302.454.643.378l-.34-1.4 2.572-.075c.756-.19 1.4-1.135 1.928-2.874-.113-2.61.416-4.008 1.588-4.31 1.588-6.2 2.572-9.302 2.912-9.416 1.475-6.163 2.57-9.68 3.3-10.55 2.23-8.016 3.857-12.138 4.916-12.403l.227.983-1.626 4.198c-2.837 12.592-5.7 22.537-8.622 29.835l.832 3.63.53-.113c7.034-15.126 17.168-45.075 30.365-89.846.378-3.933 2.27-6.996 5.634-9.15l-.756-.794-.114-.416c1.513-.34 2.572-.945 3.177-1.777-.076-.34-1.4-.832-3.97-1.513l6.58-28.21c1.437-1.286 2.27-1.966 2.533-1.966l.114 1.436c-.34.038-.87.227-1.475.643l1.248 1.778c2.27-2.458 4.727-4.576 7.41-6.353 1.362.378 2.042.832 2.118 1.285l.983-.075c7.487-5.483 14.823-9.416 22.046-11.798l.075.945c-1.323 2.004-2.23 3.025-2.722 3.063.075.68.264 1.286.605 1.815.113 1.248-3.14 9.567-9.794 24.995-15.2 35.734-27.945 62.166-38.306 79.334.038.34.265.794.68 1.4 2.534-.605 4.16-1.248 4.803-1.853l.453-.038.076.945 1.06-.075.945-.492c.038.265.378.378 1.02.34l.076 1.02c.075.907-.454 2.344-1.626 4.3-1.097 1.173-2.23 3.63-3.44 7.374l.037.492.984-.076c4.12-4.613 7.26-9.15 9.415-13.613 12.063-3.554 21.252-6.996 27.604-10.4 6.467-.567 11.344-2.23 14.672-5.03l-.038-.492-2.458.72-.53.038-.038-.492c4.69-.68 7.98-1.74 9.756-3.138 9.15-7.034 16.07-12.063 20.76-15.013 14.596-10.625 21.403-20.835 20.57-30.63zm-2.496.643l.34 3.82c-.453.946-.945 1.437-1.4 1.475l-.567-6.504c1.06.378 1.588.756 1.626 1.2zM25.94 49.46l-.642.037-.114-1.172 2.61-.227.038.605c-.416.038-1.06.265-1.89.757zM13.197 176.93c-1.512-.68-2.874-.945-4.046-.832L9 174.246c-.076-.718.34-1.2 1.248-1.4.83-.075 1.323.53 1.4 1.74 2.193-2.685 3.403-4.046 3.63-4.084l1.4.567c-.454 3.78-1.626 5.7-3.48 5.86zM149.365 34.486c-.643.076-1.93-1.928-3.78-5.9l-.114-1.172c1.2-.113 2.458 1.853 3.78 5.9l.114 1.172zm-1.815-14.104l-.53 1.248-18.49-7.715c12.328.416 18.68 2.572 19.02 6.467zM69.464 87.426l-2.61.227-.113-1.173 2.61-.227.113 1.173zm-2.118-40.272l.643-.038.152 1.853c-.605.038-1.4.945-2.383 2.685l-.113-1.286c1.172-1.4 1.777-2.458 1.7-3.214zm-5.483 12.932l.227 2.458-.642.038-.227-2.458.642-.038zM59 64.7l1.248-.114c-.114 2.042-.68 3.14-1.702 3.214l-.643.038c.794-1.36 1.172-2.42 1.097-3.138zm-2.156 6.428l.72-.076.037.605-1.172 1.967-1.248.113-.037-.605c1.248-.113 1.815-.756 1.7-2.004zm-2.117 5.786l-.378 3.1-.643.038-.265-3.063 1.286-.075zm-21.214 60.313c-.832 4.235-1.74 6.4-2.685 6.466l-.037-.605c-.227-2.08.68-4.046 2.722-5.86zm-3.895 8.432l.038.605c.076.832-.302 1.324-1.134 1.36l-.038-.605c-.076-.718.302-1.172 1.134-1.36zm-1.134 17.508l1.966-.19.076.68c-.492.037-1.135.302-1.93.756l-1.248.113c-.075-.643.34-1.134 1.135-1.36zm55.964-17.28c-11.04 5.445-17.545 9.15-19.474 11.08-11.95 4.16-17.886 6.73-17.772 7.752-10.626 4.198-17.622 7.298-20.987 9.227-.794.075-1.928-.227-3.44-.908-.19-2.155.794-3.895 2.874-5.294 1.853-.15 3.63.114 5.332.832 1.966-1.02 5.407-2.155 10.285-3.365l-.113-1.286-3.933.34c.49-.68 4.273-2.457 11.382-5.33l1.966-.19.038.605c-3.365.302-5.218 1.285-5.634 3.063.075.794.53 1.134 1.36 1.058 2.534-1.588 3.78-2.533 3.744-2.798 4.802-.907 18.075-7.865 39.818-20.835l.113 1.172c.038.567-1.815 2.155-5.56 4.878zm-33.35 10.966c3.176-.265 5.9-1.55 8.167-3.78.908-.076 1.4.264 1.437 1.058-1.55.152-4.537 1.437-8.886 3.933l-.643.038-.075-1.248zm53.81-41.33L88.22 128.756c-12.403 8.13-19.058 12.214-20.042 12.3-19.738 10.852-32.028 16.487-36.792 16.903l-.72.075c.605-2.23 9.378-20.192 26.394-53.998 7.487-.643 19.285-4.122 35.356-10.474l3.933-.34c8.13-.718 14.218.87 18.226 4.65l.227 2.458c-2.987 8.66-6.315 13.727-9.907 15.2zM72.3 97.182l2.685-.227.038.605-2.685.227-.038-.605zm37.7-6.39l1.966-.19c1.815.87 2.76 1.626 2.836 2.307l.038.605c-1.74.15-3.366-.757-4.84-2.723zm5.33-30.364c-1.74 2.08-6.504 5.634-14.293 10.625-2.572.227-12.14 3.933-28.7 11.193a5.25 5.25 0 0 0-2.647-.454l-.113-1.172c-.19-2.382.87-5.37 3.214-9 1.285-6.807 2.685-10.702 4.235-11.647L90.83 28.928c-.15-1.93 2.798-3.404 8.848-4.425l1.967-.19.15 1.778 11.08-1.55c10.967-.945 16.676 1.286 17.13 6.618l1.248-.114-.265-3.138 1.362-.114c3.214 1.777 4.953 3.933 5.18 6.466.15 1.74-.794 3.895-2.798 6.467-.832.075-1.324-.53-1.4-1.74l-1.362.114-.302 3.78c-5.56 8.32-9.605 12.592-12.1 12.82-2.27 3.138-3.668 4.69-4.236 4.727zm8.47 21.743c-1.135-.757-2.042-1.097-2.723-1.06l-.15-1.853 1.248-.114 2.76 1.627c.114.87-.265 1.323-1.134 1.4zm8.773 10.398c1.2.492 1.928 1.02 2.08 1.513l-.605.15.038.038c-.113 0-.265.038-.378.076l-.908.718-.226-2.496zm.83 5.22l-.113-.492 1.588-.378.114.492-1.59.378zm3.82 4.273c1.626-.265 2.42-.378 5.445-1.06l.113.49-5.747 1.324c.075-.265.15-.53.19-.756zm5.596 2.382c-2.42.227-1.89-.076-5.748.794l-.113-.492 4.84-1.55 2.307-.53.227.907c-1.06.227-.303.227-1.513.87zm5.105-1.2c-.567.15-1.02-.113-1.286-.756l1.475-.34c.643-.15 1.06.114 1.2.757l-1.4.34zm13.84-14.9l-.114-.49 2.383-.568.227.908-2.496.15zm14.785 90.678c.15-.68.19-1.172.113-1.513l.53-.113c.643-.15 1.02.076 1.172.68l.114.49-1.93.454zm10.36-86.783l-1.06-.19c-1.7.68-3.138 1.172-4.31 1.437l-.983.227c-.567.15-1.02-.076-1.248-.68l6.92-1.588 2.27-1.06.757.87c-1.097.227-1.89.567-2.345.983zm5.332-1.702l-.114-.49c.34-.076.794-.34 1.286-.832l4.916-1.135.113.492c-2.61.643-4.69 1.286-6.2 1.966zm.756-9.945c-.34.076-.794.378-1.36.832-.076-.34-.756-.34-2.042-.038-.227-.945 3.403-2.268 10.928-4.008l1.06-.227.227.908-8.81 2.533zm13.235-14.293c-.53 6.012-2.647 9.415-6.39 10.285l-.113-.49-3.328 1.285-1.474.34c-.757.19-1.437.15-2.042-.038l-.303-1.324c-.113-.49 4.69-7.147 14.445-19.928l1.134.19c.416 1.74-.226 4.954-1.928 9.68zm23.407-20.042l-.454.038-.076-.945 1.967-.19.037.49c-.34.076-.83.265-1.474.605zM220 143.088c-1.134-.53-2.155-.757-3.025-.68l-.113-1.437c-.038-.49.264-.832.907-1.02.643-.075 1.02.378 1.097 1.36 1.626-2.08 2.533-3.138 2.722-3.138l1.02.416c-.378 2.874-1.247 4.386-2.61 4.5zM323.384 34.94c-.49.038-1.437-1.475-2.91-4.538l-.076-.945c.945-.076 1.93 1.4 2.912 4.424l.075 1.06zm-1.36-10.815l-.454.983-13.99-5.86c9.34.303 14.18 1.93 14.445 4.878zm-59.33 50.936l-1.966.19-.076-.946 1.966-.19.076.946zm-1.626-30.592l.53-.038.114 1.437c-.492.038-1.097.72-1.815 2.042l-.076-.945c.87-1.097 1.286-1.93 1.248-2.496zm-4.122 9.832l.152 1.853-.53.038-.15-1.853.53-.038zm-2.23 3.516l.983-.075c-.113 1.588-.53 2.42-1.247 2.495l-.53.038c.567-1.058.832-1.9.794-2.458zm-1.588 4.84l.454-.038.038.49-.87 1.513-.983.076-.038-.492c1.02-.076 1.475-.605 1.4-1.55zm-1.588 4.386l-.34 2.42-.454.038-.19-2.382.983-.076zm-16.147 45.868c-.642 3.177-1.323 4.803-2.042 4.878l-.037-.416c-.114-1.588.567-3.1 2.08-4.462zm-2.987 6.39l.038.416c.076.68-.227 1.058-.908 1.096l-.037-.49c-.038-.492.264-.832.907-1.02zm-.832 13.3l1.513-.113.037.49c-.34.038-.87.227-1.474.568l-.983.075c-.038-.53.264-.87.907-1.02zm42.465-13.12c-8.32 4.122-13.273 6.92-14.823 8.357-9.075 3.176-13.575 5.142-13.5 5.936-8.055 3.215-13.35 5.52-15.844 6.996-.605.038-1.475-.19-2.6-.718-.15-1.626.605-2.95 2.194-3.933 1.437-.113 2.798.076 4.046.605 1.512-.756 4.12-1.588 7.827-2.534l-.075-.945-3.063.265c.378-.53 3.29-1.89 8.697-4.084l1.512-.114.038.416c-2.57.227-4.008.984-4.31 2.345.038.605.416.907 1.06.832 1.89-1.248 2.798-1.967 2.798-2.193 3.63-.643 13.69-5.937 30.214-15.844l.075.945c0 .378-1.4 1.588-4.235 3.668zm-25.335 8.32c2.458-.227 4.538-1.172 6.277-2.836.643-.038 1.02.227 1.06.832-1.135.113-3.366 1.06-6.73 2.874l-.53.037-.076-.907zm40.915-31.423l-12.592 10.134c-9.416 6.163-14.52 9.264-15.315 9.34-14.974 8.243-24.277 12.516-27.945 12.82l-.53.037c.454-1.7 7.147-15.352 20.08-41 5.634-.49 14.56-3.176 26.8-8.016l3.063-.265c6.164-.53 10.777.68 13.802 3.592l.152 1.853c-2.307 6.504-4.803 10.323-7.525 11.496zm-24.73-13.916l1.967-.19.037.492-1.966.19-.038-.492zm28.625-4.878l1.513-.113c1.4.68 2.118 1.285 2.155 1.777l.038.416c-1.323.113-2.57-.567-3.706-2.08zm3.97-23.03c-1.324 1.59-4.916 4.31-10.777 8.093-1.966.19-9.227 2.987-21.78 8.432-.605-.227-1.286-.302-2.004-.265l-.076-.945c-.15-1.815.643-4.084 2.383-6.844.983-5.22 2.08-8.13 3.214-8.81l10.55-23.596c-.114-1.4 2.117-2.533 6.655-3.403l1.513-.113.113 1.436 8.395-1.247c8.32-.72 12.667.945 13.008 5.03l.983-.076-.19-2.27.983-.075c2.42 1.323 3.706 2.91 3.857 4.802.113 1.36-.567 3.025-2.004 4.954-.643.075-1.02-.378-1.097-1.362l-.983.076-.302 2.836c-4.198 6.39-7.26 9.68-9.19 9.832-1.702 2.306-2.76 3.48-3.252 3.516zm4.424 15.73l-.113-1.437.983-.075 2.117 1.285c.038.605-.264.946-.907 1.02-.908-.567-1.588-.832-2.08-.794zm-176.024 91.85l-.983.227-.832.718c.152.605.53.832 1.173.68s.907-.53.756-1.134l-.114-.492zm-3.743-7.45l.113.49c.643-.15.908-.53.757-1.134l-.114-.492c-.605.15-.87.53-.756 1.135zm26.772-50.293l.72-.454c-.152 0-.265-.038-.38-.075-.264.075-.378.264-.34.53zm-.15-13.046l1.134-.264-.227-.984-1.134.265.227.983zm267.23 38.192l-2.572-.302-.454.983.038.492 15.315-1.286-.076-.945-12.25 1.058zm13.99-1.172l.075.945h.15l-.075-.945h-.15zm64.245-8.395l.076.946 1.664.302-.076-.945-1.664-.303zm-2.344.19c-11.495 2.572-12.932 2.118-15.352 2.307l.075.945 1.06-.075.567-.038-.15-.113 1.248-.492c11.382-1.248 12.705-.794 12.592-2.08l-.038-.454zm-69-16.713l-1.02-.34c-.832 2.23-1.248 3.554-1.2 3.932l.037.416c.795-.038 1.513-1.4 2.194-4.008zM409.033 96l-.038-.492-.53.038-.946.605.53.907c.718-.075 1.058-.416.983-1.058zm30.062 31.082l-.076-.945-.302.038.075.945.303-.038zm62.393-14.066l.718-.076c.416-.038.605-.378.567-.983l-.416-.908c-2.61.227-3.82.34-5.936 1.513l-.038-.492-3.14.303c-.075-.946-.34-1.437-.756-1.4l-1.626.15c-1.89.15-2.798.076-3.744.794-.037-.34-.15-.492-.34-.492l-1.815.152-1.06.605c-.038-.34-.15-.492-.34-.492l-.643.567-.038-.49-2.533-.19-.605.038.075.945 1.286.34 1.2-.075c.416.264.87.34 1.4.302l1.06-.53.038.416c-5.937 1.474-5.9 1.2-9.983 1.9-.454-.302-.794-.453-1.02-.416l-.076.076c-.453-.038-.718-.34-.756-.832l2.118-.265c.15 0 .264.152 1.436.38 1.702-.832 1.778-1.173 2.685-1.248l-.075-.946c-5.824 1.135-3.48.378-10.777 1.02l-.34.038-.075-.945c9.378-1.135 6.24-.492 9.453-1.4.038.34.152.49.34.49.378-.378.794-.567 1.285-.643l.643-.037c3.3-.265 4.387.378 10.89-1.437l.037.416 1.06-.53.983-.075c-.075-.946 1.362-1.097 1.853-1.135l-.075-1.02c-11.42 2.307-14.408 1.664-17.584 2.572l-.038-.416c-2.987.53-3.1.302-3.857.34-.227.038-.567.227-.945.605-.038-.34-.15-.492-.378-.492-.114 0-.15.038-.19.038l-9.68 1.588c-.037-.264-.15-.416-.378-.378-5.03 1.06-3.668 1.248-10.4 1.853-.302.038-.718.19-1.247.53-.038-.264-.2-.415-.53-.378l-4.122.34-2.76.68c-.038-.264-.19-.416-.53-.378-1.55.416-2.912.68-4.01.756h-.075c-.68.076.34-.19-.19-.415l-.832.49c-1.2.114-.567-.076-4.727-.038-7.298.908-6.504 1.02-7.298 1.06l-2.723-.19c.038.265-.113.454-.416.454-3.1-.416-4.688-.908-4.726-1.475.416-2.95 1.134-4.462 2.155-4.538l.53-.037-.454.983.53-.038c.983-.53 1.437-1.02 1.4-1.475l-.075-1.02-.984.076-.075-.946c-.076-.718.038-1.36.302-1.9l2.23-3.593.076.946 1.06-.076-.076-.945-.605-.87c.794-.68 1.4-1.06 1.89-1.097l-.038-.49-1.437.113-.113-1.437c2.874-5.974 4.235-9.453 4.16-10.436l1.02.416c.643-.038.945-.416.908-1.097l-.984.076-.037-.416c-.076-.72.075-1.4.378-2.004 1.55-1.626 2.27-3.252 2.117-4.954.303-.038.454.114.492.454 1.324-.756 2.345-2.76 3.1-6.088 2.344-4.235 5.672-12.706 10.02-25.373 8.32-22.386 7.98-24.768 9.15-30.062l-.983.075c.076.68-.075 1.324-.378 1.93-.68-.265-1.2-.416-1.588-.378l-.038-.416c-.15-1.93.643-4.235 2.458-6.958l.454-.038.832 3.252.983-.075c-.038-.227.227-1.513.756-3.895-.038-.492-.416-.794-1.172-.832l-.945.605c-.076-.68-.038-2.458.075-5.294l-.492.038c-.83-.832-1.247-1.513-1.285-2.08l-5.408.53c-.037-.378-.226-.945-.605-1.664-.037-.49 1.173-.983 3.668-1.474l1.097.416 1.02-.605c.038.34.227.49.605.453l1.02-.605c.038.34.227.492.605.454l.492-.038-.076-1.096c-.756.075-2.76.075-5.937-.038l-1.02.68-.038-.605-43.22 3.592c-.454.038-2.23 0-5.37-.076.037.416-.34.643-1.097.72l-1.097-.492-3.705.946c-.87.075-2.345.037-4.387-.2-.567.454-1.248.72-2.08.795-.453.037 5.408-.303 10.853-.68-.567.454-1.437.718-2.647.832-.832.075-1.55-.038-2.155-.378-.832.378-3.517.983-8.017 1.9l-1.096-.416-17.697 2.723c-.68-.34-1.475-.454-2.383-.378-.945.075-2.533.416-4.726 1.02l-8.546 3.554.642 1.06c.416-.038 1.02-.265 1.74-.68l3.025.265-.378 2.836c-2.798 1.248-4.424 3.1-4.878 5.445-4.197 1.853-6.277 3.177-6.277 3.97l.038.49.642-.037 1.135-.605 1.323 1.588.19 2.193c.076.68-6.995 15.54-21.138 44.583-12.25 27.982-18.68 43.297-19.285 46.057-4.197 1.172-6.617 2.874-7.336 5.143.076.718 1.324 1.2 3.744 1.4l.113 1.096-1.096 1.815.19 2.194c.113 1.134 3.176 2.004 9.19 2.61-.038-.378.15-.605.567-.643.113 1.36-.265 4.008-1.135 7.94l.643-.038c2.496-3.403 3.668-5.748 3.555-7.033l.53-.038c.605-.038 1.248.643 2.004 2.117-.756.303-3.403 6.315-7.94 18.075l.643 1.06.643-.038c5.56-14.066 9.038-21.856 10.474-23.33l37.852-3.857 1.135-.68c.037.38.264.568.68.53l1.173-.114 1.134-.68c.038.378.265.567.68.53l13.575-1.172c3.592-.303 5.294-1.4 5.142-3.252-.037-.492 2.08-1.06 6.353-1.664.416-.038 1.02.076 1.853.34-.038-.34 2.118-.68 6.43-1.058.113-2.27.83-3.48 2.117-3.593l-.113-1.096c-1.2.113-2.572.416-4.16.945-2.836-.15-4.65-.378-5.407-.643-.757.416-1.324.643-1.74.68l-9.453.302-1.135.605c-.038-.34-.264-.49-.68-.453l-.53.037-1.2.606c-.038-.34-1.02-.606-2.987-.87l-1.2.718-2.344.19-.038-.605c12.176-1.323 18.188-2.987 18.037-4.953.794-.076 1.2.302 1.285 1.096l3.555-.907-.113-1.097-29.155.794c.038.378-.15.605-.567.643l-3.555-.302c-.907.075-1.663.34-2.268.794l-1.324-.492c-3.668.303-6.39.756-8.206 1.324-2.495-.19-5.256-.152-8.32.113l-6.54.567-3.025-.34c-.152-1.93 3.592-11.42 11.306-28.436 2.23-5.748 4.273-9.34 6.24-10.7.416-.038 1.02.113 1.853.453l4.65-1.588 2.382.378c4.01-.34 8.66-1.474 13.992-3.44 1.323-.113 2.306-.037 3.025.265l3.554-.832 10.588-.908c4.5-.378 9.378-1.36 14.672-2.987l-.114-1.096c-1.966.19-2.987-.152-3.062-.946-.114-1.474-1.55-2.08-4.31-1.853l-.114-1.096 2.912-.832 7.638-.643-.113-1.096c-.303.037-1.853 0-4.727-.114l-.113-1.172 2.95-.265c.794-.075 1.135-.454 1.06-1.2-3.97.113-5.975-.076-6.012-.605-27.68 1.36-41.558 1.626-41.633.756-.416.038-.984.303-1.74.757l-.718-1.135c7.335-15.58 11.646-23.445 12.894-23.558.038.605-.265 1.588-.908 2.912l.038.49 1.173-.113c2.91-6.958 5.37-10.55 7.41-10.7 8.697-.757-1.2-1.324 17.395-4.236.756.34 1.285.492 1.663.454 7.298-1.475 17.47-3.025 30.516-4.613l-.076-1.097-6.957.643-.076-1.097c.832-.075 1.513-.34 2.08-.794l.038.605c.378-.037.907-.302 1.588-.756 1.2-.113 2.117 0 2.76.34 2.42-.642 4.387-1.02 5.824-1.172l4.348-.416c1.06-.68 1.55-1.285 1.513-1.853l-.038-.49c-1.097.113-2.344.038-3.82-.227-.038-.605.264-1.02.983-1.2l8.092-.756 3.706-.946c.038.416.227.567.53.567.378-.037.908-.302 1.588-.756.2.038.416.038.605.076-.49 1.02-1.058 2.496-1.626 4.424l-1.058.076c-.076-.72-.265-1.362-.605-1.93l-.53.038c-9.83 27.377-14.218 40.12-23.293 61.145-1.664 5.37-3.063 8.357-4.273 9 .038.605.416.907 1.06.832.227 2.647-.378 5.256-1.853 7.827-4.198 12.1-6.996 18.718-8.433 19.928l.946 5.7c.037.605-.265.945-.908 1.02l-.983.076c-.15-1.59-.72-2.345-1.74-2.23l-.53.037c-1.286 2.004-2.27 4.31-2.91 6.996l.983-.076c1.323-.87 1.928-1.9 1.815-3.063l1.966-.19 1.134.416c-.907 1.437-1.323 2.572-1.247 3.44l.53.908-1.286 3.025.038.492c1.135-.114 2.382.264 3.706 1.058.907-.075 1.89-.49 2.987-1.2 1.135-.113 5.37-.15 12.668-.15l3.668-1.248c4.462-.038 5.18.076 9.037-.265l1.588-.15.832-.567.038.492c4.046-.34 4.31-.076 7.487.302l.038.492-2.23.19.076.945c.68-.076 1.285-.265 1.777-.68.567-.037.907.265.945.946-.907.075-1.928.302-3.063.68l-.983-.34c-1.55.416-1.2.53-2.27.605l-1.55-.302c.038.264-.113.453-.378.453.038.605.378.908.945.87l1.588-.15 8.282-.72 3.138-.68c.038.264.15.416.416.378l1.513-.567 2.836-.227c2.193-.19 2.155-.34 6.92-1.097-.038-.302.075-.416.302-.454l.038.416c7.752-1.323 8.243-1.4 9.49-1.815l.114.227c1.928-.454.832-.34 1.36-.718.038.34.15.49.34.49l1.362-.113-.076-1.02-2.76-.038-.038-.076c-.114.038-.19.038-.303.076h-.378v.076c-1.853.378-1.89.113-3.1.227l-6.92.378-.037-.492 3.857-.53 1.4-.114.794-.567.038.492c5.445-.454 7.373.907 32.557-4.462 1.362-.114 1.248-1.248 2.118-3.593-.454.038-.908-.075-1.323-.302-2.08.794-3.177.416-7.185 1.06-.34.038-.605-.265-.72-.87l-.038-.416 3.857.113c.72-.075 2.118-.19 4.198-1.36 0 .34-.794.53-.34.492zm-186.196 2.987l-1.777.15c-.076-.718.87-3.44 2.836-8.092l1.172-.113c.038 1.096-.68 3.78-2.23 8.054zm2.156-8.622l-.038-.49c-.038-.605.34-1.02 1.172-1.2l.038.49c.038.72-.34 1.135-1.172 1.2zm23.633 18.264l.038.492-2.95.265-.038-.492 2.95-.265zm-3.554-.302c.038.605-.87 1.286-2.836 1.966l-3.63-.264-1.172.113-.113-1.097 7.752-.718zm23.898-110l-1.777.152-.038-.605c-.038-.605.303-1.02 1.06-1.2l.643-.038 1.2.49c.037.72-.303 1.135-1.097 1.2zm27.037-5.294l.567-.037.076 1.096-1.626.15c-.038-.605.264-1.02.983-1.2zm-6.807 2.383l-2.684-.303-.038-.49c3.517-.303 4.69-.68 6.844-1.286.038.416.416.567 1.097.492l.075 1.096-1.058.114c-.832.075-1.55-.038-2.156-.38-.643.416-1.323.68-2.08.757zm3.366 9.794l-.038-.492 4.35-.416.038.492-4.35.416zm4.65-3.782l-.038-.605 2.118-.19.038.605-2.118.19zm.492-7.41l-.568.037.492-1.172 4.84-.454.038.605c-1.248.114-2.874.454-4.802.984zm2.458 10.436l-.076-1.096 2.118-.19c.718-.076 1.096.264 1.134 1.02l-3.176.264zm12.818-17.47l-2.722.757-.492.037c-1.285.114-2.95.076-4.916-.113 3.517-.227 6.883-.492 8.13-.68zm-2.91 12.1l.038.49-3.744.34-.038-.492 3.744-.34zm6.126 2.91c-.038-.453-.757-.756-2.23-.907l-3.744 1.06-2.874.113c-.643-.454-.983-.756-1.02-.983l3.328.19 7.487-1.2 3.82.15.038.605c-1.89.19-3.48.53-4.802.983zm38.532-9.945c.454.038.756.038.87.038 1.323-1.286 2.798-2.307 4.5-3.025-1.362 5.975-3.48 10.4-6.39 13.273l-2.118-1.286c1.778-4.5 2.837-7.487 3.14-9zm-6.504 11.155l.53-.037c-.718 1.36-1.36 2.08-1.9 2.117l-.114-1.437c.34 0 .832-.227 1.475-.643zm-4.197 10.02c1.02-4.084 2.004-6.4 2.91-6.995l.038.49c-.53 3.78-1.36 5.786-2.458 5.937l.19 2.382c-.907 1.286-1.323 2.27-1.286 3.025l-.53.038-.302-3.3c.605-.075 1.096-.605 1.437-1.588zm-1.626 5.445c.037.567-.34 1.89-1.097 3.933l-.53.038-.114-1.437c.72-1.664 1.324-2.496 1.74-2.534h.001zm-30.516 88.56l-.038-.416.983-.075.114 1.437c-.53.038-.908-.265-1.06-.946zm43.6 1.135c-.038-.34-.19-.492-.53-.454l-2.458.227-.038-.492h.227l5.823-.49.038.49c-1.7.076-2.722.34-3.063.72zm-2.91-1.2c.227.113.113.227 0 .302-.114-.038-.265-.15 0-.302zm.302-6.807l-3.252.265-.038-.492 2.95-.264 2.57-.643c.038.302.19.416.53.378 3.063-.53 2.76-.68 4.235-.794.49-.038.794.265.832.87l-7.828.68zm11.382-.983c-1.815-.19-1.928-.34-3.214-.227l-.038-.416 2.912-.264.038.416c-.303.037.794.113.302.49zm.227-.53l-.038-.416 1.588-.152.038.416-1.588.152zm3.517-.303l-.038-.416c.265-.037.643-.227 1.134-.605.794-.075 1.2.454 1.286 1.06l-2.382-.038zm4.5-.567l-.038-.492 1.928-.15.038.492-1.928.15zm2.684-.227c-.037-.567.19-.907.68-.983l.643.832c-.038-.265.075-.416.302-.454l.492.908-2.118-.303zm37.21-4.386l.038-.038v-.038s-.038.038-.038.076zm.68-.492c.302-.19.454-.378-.265-.49-.34.378.378.49-.378.53l.038.34c.075-.075.265-.19.416-.302l-.416.34v.038l-.794 1.02 1.588-.567h.19l-.076-.946-.302.038zm2.76 2.156l-.302.037.075.946 2.23-.19c-.037-.605-1.512-.794-2.004-.794z" fill="#f9dc3e"/></svg>