<svg xmlns="http://www.w3.org/2000/svg" width="256" height="361" preserveAspectRatio="xMidYMid"><path d="M127.844 360.088L23.662 331.166.445 70.766h255.1l-23.24 260.36-104.47 28.962z" fill="#264de4"/><path d="M212.417 314.547l19.86-222.49H128V337.95l84.417-23.404z" fill="#2965f1"/><path d="M53.67 188.636l2.862 31.937H128v-31.937H53.67zm-5.753-64.64l2.903 31.937H128v-31.937H47.917zM128 271.58l-.14.037-35.57-9.604-2.274-25.47h-32.06l4.474 50.146 65.42 18.16.147-.04v-33.23z" fill="#ebebeb"/><path d="M60.484 0h38.68v16.176H76.66v16.176h22.505v16.176h-38.68V0zM106.9 0h38.68v14.066h-22.505v2.813h22.505v32.35H106.9V34.46h22.505v-2.813H106.9V0zm46.42 0H192v14.066h-22.505v2.813H192v32.35h-38.68V34.46h22.505v-2.813H153.32V0z"/><path d="M202.127 188.636l5.766-64.64H127.9v31.937h45.003l-2.906 32.704H127.9v31.937h39.327l-3.707 41.42-35.62 9.614v33.227l65.473-18.146 8.764-98.052z" fill="#fff"/></svg>