<svg xmlns="http://www.w3.org/2000/svg" width="256" height="225" preserveAspectRatio="xMidYMid"><path d="M77.965 80.568l48.57-28.042a3.93 3.93 0 0 1 3.929 0l48.57 28.042A3.93 3.93 0 0 1 181 83.971v56.084c0 1.403-.75 2.7-1.965 3.404l-48.57 28.042a3.93 3.93 0 0 1-3.929 0l-48.57-28.042A3.93 3.93 0 0 1 76 140.055V83.97c.001-1.404.75-2.7 1.965-3.403" fill="#8080f2"/><path d="M254.417 107.417L196.323 6.35c-2.1-3.654-6.008-6.35-10.228-6.35H69.906c-4.22 0-8.12 2.696-10.23 6.35L1.583 107.194c-2.1 3.655-2.1 8.268 0 11.924l58.094 100.24c2.1 3.654 6.01 5.523 10.23 5.523h116.188c4.22 0 8.12-1.812 10.228-5.467l58.094-100.402c2.112-3.653 2.112-7.938.001-11.592zm-48.105 48.6c0 1.486-.894 2.86-2.183 3.604l-74 42.694a4.21 4.21 0 0 1-4.186 0L51.89 159.62c-1.287-.744-2.188-2.117-2.188-3.604v-85.39c0-1.487.887-2.86 2.175-3.604l73.996-42.694a4.2 4.2 0 0 1 4.184 0l74.06 42.694c1.288.744 2.195 2.117 2.195 3.604v85.39z" fill="#4b32c3"/></svg>