<svg xmlns="http://www.w3.org/2000/svg" width="256" height="250" preserveAspectRatio="xMidYMid"><path d="M128 0C57.317 0 0 57.307 0 128c0 56.554 36.676 104.534 87.535 121.46 6.397 1.185 8.746-2.777 8.746-6.158l-.174-23.83c-35.6 7.743-43.124-15.102-43.124-15.102-5.823-14.795-14.212-18.73-14.212-18.73-11.614-7.944.875-7.78.875-7.78 12.854.903 19.622 13.19 19.622 13.19 11.416 19.57 29.944 13.91 37.25 10.64 1.15-8.273 4.466-13.92 8.127-17.116-28.43-3.237-58.318-14.212-58.318-63.26 0-13.975 5-25.393 13.188-34.357-1.33-3.224-5.7-16.243 1.24-33.874 0 0 10.75-3.44 35.21 13.12 10.2-2.836 21.16-4.258 32.038-4.307 10.878.05 21.837 1.47 32.066 4.307 24.43-16.56 35.165-13.12 35.165-13.12 6.967 17.63 2.584 30.65 1.255 33.874 8.207 8.964 13.174 20.382 13.174 34.357 0 49.163-29.944 59.988-58.447 63.157 4.59 3.972 8.682 11.762 8.682 23.704l-.148 35.127c0 3.406 2.304 7.398 8.792 6.14C219.37 232.5 256 184.536 256 128 256 57.307 198.69 0 128 0zM47.94 182.34c-.282.636-1.282.827-2.194.4-.928-.418-1.45-1.285-1.15-1.923.276-.655 1.278-.837 2.204-.398.93.418 1.46 1.293 1.138 1.93zm6.296 5.618c-.6.566-1.804.303-2.614-.59-.837-.892-.994-2.086-.375-2.66.63-.566 1.787-.3 2.626.59.837.903 1 2.088.362 2.66zm4.32 7.188c-.784.545-2.067.034-2.86-1.104-.784-1.138-.784-2.503.017-3.05.795-.547 2.058-.055 2.862 1.075.782 1.157.782 2.522-.02 3.08zm7.305 8.325c-.702.774-2.196.566-3.3-.5-1.12-1.032-1.43-2.497-.727-3.27.7-.776 2.213-.557 3.315.5 1.11 1.03 1.45 2.505.702 3.27zm9.44 2.8c-.31 1.003-1.75 1.458-3.2 1.032-1.448-.44-2.395-1.613-2.103-2.626.3-1.01 1.747-1.484 3.207-1.028 1.446.437 2.395 1.602 2.094 2.622zm10.744 1.192c.036 1.056-1.193 1.93-2.715 1.95-1.53.034-2.768-.82-2.785-1.86 0-1.066 1.202-1.933 2.732-1.96 1.522-.03 2.768.818 2.768 1.867zm10.555-.405c.182 1.03-.875 2.088-2.387 2.37-1.486.27-2.862-.365-3.05-1.386-.184-1.056.892-2.113 2.376-2.387 1.513-.263 2.868.356 3.06 1.403z" fill="#161614"/></svg>