<svg xmlns="http://www.w3.org/2000/svg" width="256" height="256" preserveAspectRatio="xMidYMid"><style><![CDATA[.B{opacity:.5}.C{fill:#56b3b4}.D{fill:#f7ba3e}.E{fill:#ea5e5e}.F{fill:#bf85bf}]]></style><rect x="182.857" y="48.762" width="24.381" height="12.19" rx="5" class="C"/><rect y="243.81" width="73.143" height="12.19" rx="5" class="E"/><rect x="146.286" y="146.286" width="48.762" height="12.19" rx="5" class="F"/><rect x="73.143" y="146.286" width="60.952" height="12.19" rx="5" class="E"/><rect y="146.286" width="60.952" height="12.19" rx="5" class="C"/><g class="F"><rect y="195.048" width="73.143" height="12.19" rx="5"/><rect y="97.524" width="73.143" height="12.19" rx="5"/></g><rect x="60.952" y="24.381" width="134.095" height="12.19" rx="5" class="D"/><rect y="24.381" width="48.762" height="12.19" rx="5" class="E"/><rect x="48.762" y="219.429" width="24.381" height="12.19" rx="5" class="D"/><g class="C"><rect x="48.762" y="73.143" width="24.381" height="12.19" rx="5"/><rect y="219.429" width="36.571" height="12.19" rx="5"/></g><rect y="73.143" width="36.571" height="12.19" rx="5" class="D"/><g fill="#d0d4d8"><rect x="158.476" y="219.429" width="24.381" height="12.19" rx="5" class="B"/><rect x="85.333" y="219.429" width="60.952" height="12.19" rx="5" class="B"/><rect x="195.048" y="219.429" width="60.952" height="12.19" rx="5" class="B"/></g><rect x="97.524" y="121.905" width="109.714" height="12.19" rx="5" class="C"/><rect x="36.571" y="121.905" width="48.762" height="12.19" rx="5" class="D"/><rect y="121.905" width="24.381" height="12.19" rx="5" class="E"/><rect x="109.714" y="48.762" width="60.952" height="12.19" rx="5" class="F"/><rect y="48.762" width="97.524" height="12.19" rx="5" class="C"/><rect x="36.571" y="170.667" width="121.905" height="12.19" rx="5" class="D"/><rect y="170.667" width="24.381" height="12.19" rx="5" class="F"/><rect x="146.286" y="73.143" width="73.143" height="12.19" rx="5" class="E"/><rect x="146.286" y="97.524" width="73.143" height="12.19" rx="5" class="D"/><rect width="158.476" height="12.19" rx="5" class="C"/><g fill="#d0d4d8"><rect x="170.667" width="85.333" height="12.19" rx="5" class="B"/><rect x="170.667" y="170.667" width="36.571" height="12.19" rx="5" class="B"/><rect x="219.429" y="170.667" width="36.571" height="12.19" rx="5" class="B"/><rect x="207.238" y="146.286" width="48.762" height="12.19" rx="5" class="B"/><rect x="207.238" y="24.381" width="48.762" height="12.19" rx="5" class="B"/><rect x="219.429" y="121.905" width="36.571" height="12.19" rx="5" class="B"/><rect x="219.429" y="48.762" width="36.571" height="12.19" rx="5" class="B"/><rect x="231.619" y="73.143" width="24.381" height="12.19" rx="5" class="B"/><rect x="231.619" y="97.524" width="24.381" height="12.19" rx="5" class="B"/><rect x="134.095" y="195.048" width="121.905" height="12.19" rx="5" class="B"/><rect x="85.333" y="195.048" width="36.571" height="12.19" rx="5" class="B"/><rect x="182.857" y="243.81" width="73.143" height="12.19" rx="5" class="B"/><rect x="85.333" y="243.81" width="85.333" height="12.19" rx="5" class="B"/><rect x="85.333" y="73.143" width="48.762" height="12.19" rx="5" class="B"/><rect x="85.333" y="97.524" width="48.762" height="12.19" rx="5" class="B"/></g></svg>