<svg xmlns="http://www.w3.org/2000/svg" width="256" height="228" preserveAspectRatio="xMidYMid"><path d="M210.483 73.824l-8.24-2.597 1.273-5.62c6.238-30.28 2.16-54.676-11.768-62.707-13.355-7.7-35.196.33-57.254 19.525a171.23 171.23 0 0 0-6.374 5.849c-1.417-1.355-2.83-2.665-4.242-3.917C100.76 3.83 77.587-4.822 63.673 3.233 50.33 10.957 46.38 33.9 51.995 62.588c.542 2.772 1.176 5.603 1.893 8.48a169.37 169.37 0 0 0-9.475 2.979C17.31 83.497 0 98.307 0 113.668c0 15.865 18.582 31.778 46.812 41.427a145.52 145.52 0 0 0 6.922 2.165c-.773 3.113-1.446 6.163-2 9.138-5.354 28.2-1.173 50.59 12.134 58.266 13.745 7.926 36.812-.22 59.273-19.855 1.775-1.552 3.557-3.198 5.342-4.923 2.313 2.228 4.623 4.336 6.92 6.314 21.757 18.722 43.245 26.283 56.54 18.586 13.73-7.95 18.193-32.003 12.4-61.268-.442-2.235-.957-4.518-1.536-6.842 1.62-.48 3.2-.973 4.76-1.487 29.348-9.724 48.443-25.443 48.443-41.52 0-15.417-17.868-30.326-45.517-39.844zm-6.365 70.984a144.31 144.31 0 0 1-4.3 1.346c-3.24-10.257-7.613-21.163-12.964-32.432 5.106-11 9.3-21.767 12.46-31.958 2.62.758 5.16 1.557 7.6 2.4 23.7 8.155 38.14 20.213 38.14 29.504 0 9.896-15.606 22.743-40.946 31.14zm-10.514 20.834c2.562 12.94 2.928 24.64 1.23 33.787-1.525 8.22-4.59 13.698-8.382 15.893-8.068 4.67-25.32-1.4-43.927-17.412-2.133-1.835-4.282-3.795-6.437-5.87 7.213-7.89 14.423-17.06 21.46-27.246 12.376-1.098 24.068-2.894 34.67-5.345.522 2.107.986 4.173 1.386 6.193zM87.276 214.515c-7.882 2.784-14.16 2.863-17.955.675-8.075-4.657-11.432-22.636-6.853-46.752.524-2.762 1.15-5.6 1.868-8.5 10.487 2.32 22.093 3.988 34.5 4.993 7.083 9.967 14.5 19.128 21.976 27.15-1.633 1.577-3.26 3.078-4.878 4.492-9.932 8.682-19.886 14.842-28.657 17.94zM50.35 144.747c-12.483-4.266-22.792-9.812-29.858-15.863-6.35-5.438-9.555-10.836-9.555-15.216 0-9.322 13.898-21.212 37.077-29.293 2.812-.98 5.757-1.905 8.812-2.773 3.203 10.42 7.406 21.315 12.477 32.332-5.137 11.18-9.4 22.25-12.634 32.79a134.72 134.72 0 0 1-6.319-1.979zm12.378-84.26c-4.81-24.587-1.616-43.135 6.425-47.8 8.564-4.958 27.503 2.11 47.463 19.835 1.276 1.133 2.557 2.318 3.84 3.545-7.438 7.987-14.788 17.08-21.808 26.987-12.04 1.116-23.565 2.91-34.16 5.31-.666-2.68-1.256-5.313-1.76-7.887zm110.427 27.267a347.8 347.8 0 0 0-7.785-12.803c8.168 1.033 15.994 2.403 23.343 4.08-2.206 7.07-4.956 14.465-8.194 22.044a381.15 381.15 0 0 0-7.365-13.322zm-45.032-43.86c5.044 5.465 10.096 11.566 15.065 18.187a322.04 322.04 0 0 0-15.187-.36 323.24 323.24 0 0 0-15.07.353c4.974-6.56 10.07-12.652 15.192-18.18zM82.802 87.83c-2.53 4.388-4.94 8.81-7.227 13.238-3.185-7.553-5.91-14.98-8.135-22.15 7.304-1.635 15.093-2.97 23.21-3.984-2.688 4.194-5.3 8.497-7.848 12.897zm8.08 65.352c-8.385-.936-16.29-2.203-23.594-3.793 2.26-7.3 5.046-14.885 8.298-22.6 2.292 4.426 4.712 8.85 7.258 13.246a323.72 323.72 0 0 0 8.038 13.147zm37.54 31.03c-5.183-5.593-10.353-11.78-15.403-18.433 4.902.192 9.9.29 14.978.29a347.67 347.67 0 0 0 15.453-.344c-4.985 6.774-10.02 12.97-15.03 18.486zm52.198-57.817c3.422 7.8 6.306 15.345 8.596 22.52-7.423 1.693-15.436 3.057-23.88 4.07 2.658-4.21 5.28-8.557 7.86-13.026 2.608-4.522 5.084-9.05 7.425-13.564zm-16.898 8.1c-4.002 6.94-8.1 13.562-12.28 19.815a329.4 329.4 0 0 1-23.444.823c-7.967 0-15.716-.247-23.178-.732a310.2 310.2 0 0 1-12.513-19.846c-3.965-6.85-7.615-13.757-10.922-20.626 3.306-6.885 6.947-13.8 10.9-20.638l-.001.001c3.953-6.856 8.114-13.467 12.413-19.76 7.613-.576 15.42-.876 23.31-.876 7.926 0 15.743.303 23.354.883 4.233 6.25 8.366 12.838 12.335 19.695 4.014 6.934 7.7 13.803 11.036 20.54-3.325 6.853-7.004 13.792-11 20.722zm22.56-122.124c8.573 4.944 11.906 24.88 6.52 51.026a144.48 144.48 0 0 1-1.151 5.089c-10.62-2.45-22.154-4.274-34.23-5.407-7.034-10.017-14.324-19.124-21.64-27.008a160.79 160.79 0 0 1 5.888-5.4c18.9-16.448 36.564-22.94 44.612-18.3zM128 90.808c12.625 0 22.86 10.234 22.86 22.86s-10.235 22.86-22.86 22.86-22.86-10.235-22.86-22.86 10.235-22.86 22.86-22.86z" fill="#00d8ff"/></svg>