<svg xmlns="http://www.w3.org/2000/svg" xmlns:xlink="http://www.w3.org/1999/xlink" width="256" height="319" preserveAspectRatio="xMidYMid"><defs><path d="M9.872 293.324L.01 30.573C-.314 21.896 6.34 14.54 15.006 14L238.494.032c8.822-.55 16.42 6.153 16.972 14.975.02.332.03.665.03.998V302.32c0 8.84-7.165 16.004-16.004 16.004-.24 0-.48-.005-.718-.016l-213.627-9.595c-8.32-.374-14.963-7.066-15.275-15.388z" id="A"/></defs><mask id="B" fill="#fff"><use xlink:href="#A"/></mask><use fill="#ff4785" xlink:href="#A"/><path d="M188.665 39.127l1.527-36.715L220.884 0l1.322 37.863a2.39 2.39 0 0 1-2.303 2.469c-.564.02-1.117-.16-1.56-.51l-11.836-9.324-14.013 10.63a2.39 2.39 0 0 1-3.345-.459c-.335-.442-.506-.987-.483-1.542zm-39.252 80.853c0 6.227 41.942 3.242 47.572-1.13 0-42.402-22.752-64.684-64.415-64.684s-65.006 22.628-65.006 56.57c0 59.116 79.78 60.248 79.78 92.493 0 9.05-4.432 14.426-14.183 14.426-12.706 0-17.73-6.49-17.138-28.55 0-4.786-48.46-6.278-49.936 0C62.326 242.57 95.636 258 133.753 258c36.935 0 65.892-19.687 65.892-55.327 0-63.36-80.962-61.662-80.962-93.06 0-12.728 9.455-14.426 15.07-14.426 5.9 0 16.547 1.042 15.66 24.8z" fill="#fff" mask="url(#B)"/></svg>