<svg xmlns="http://www.w3.org/2000/svg" xmlns:xlink="http://www.w3.org/1999/xlink" width="512" height="103" preserveAspectRatio="xMidYMid"><defs><path d="M3.176 94.358L.004 9.835a5.15 5.15 0 0 1 4.824-5.331L76.72.01a5.15 5.15 0 0 1 5.46 4.817l.01.32v92.103a5.15 5.15 0 0 1-5.379 5.143L8.1 99.308a5.15 5.15 0 0 1-4.914-4.95z" id="A"/></defs><path d="M136.397 81.057c-4.37 0-8.574-.587-12.616-1.76s-7.4-2.8-10.076-4.874l4.096-9.093c5.57 3.878 11.824 5.816 18.76 5.816 3.604 0 6.376-.587 8.315-1.76s2.908-2.8 2.908-4.874c0-1.857-.887-3.304-2.662-4.342s-4.93-2.048-9.462-3.03c-5.08-1.038-9.134-2.294-12.165-3.768s-5.243-3.3-6.636-5.448-2.09-4.82-2.09-7.987c0-3.495.97-6.608 2.908-9.34s4.656-4.874 8.15-6.43 7.537-2.335 12.124-2.335c4.096 0 8.042.6 11.837 1.802s6.813 2.813 9.052 4.833l-4.096 9.093c-5.298-3.878-10.868-5.816-16.712-5.816-3.33 0-5.953.642-7.864 1.925s-2.867 3.045-2.867 5.284c0 1.31.37 2.39 1.106 3.236s1.966 1.597 3.686 2.253 4.164 1.338 7.332 2.048c7.427 1.638 12.766 3.74 16.015 6.308s4.874 6.117 4.874 10.65c0 5.46-2.103 9.762-6.308 12.902s-10.076 4.7-17.613 4.7zm53.576-9.175a33.03 33.03 0 0 0 3.932-.246l-.655 9.01c-1.584.218-3.168.328-4.75.328-6.117 0-10.58-1.338-13.394-4.014s-4.22-6.745-4.22-12.206v-15.4h-7.62v-9.257h7.62V28.3h12.37v11.796h10.076v9.257h-10.076v15.32c0 4.806 2.24 7.21 6.717 7.21zm28.754 9.093c-4.26 0-8-.86-11.223-2.58s-5.707-4.15-7.455-7.29-2.62-6.84-2.62-11.1.874-7.96 2.62-11.1 4.233-5.557 7.455-7.25 6.963-2.54 11.223-2.54 8 .846 11.223 2.54 5.707 4.1 7.455 7.25 2.62 6.84 2.62 11.1-.874 7.96-2.62 11.1-4.233 5.57-7.455 7.29-6.963 2.58-11.223 2.58zm0-9.42c6.007 0 9.01-3.85 9.01-11.55 0-3.878-.778-6.772-2.335-8.684s-3.782-2.867-6.676-2.867c-6.007 0-9.01 3.85-9.01 11.55s3.004 11.55 9.01 11.55zm55.542-22.282l-6.963.737c-3.44.328-5.87 1.297-7.29 2.908s-2.13 3.755-2.13 6.43V80.32h-12.37V40.097h11.878v6.8c2.02-4.642 6.2-7.182 12.534-7.62l3.604-.246.737 10.24zm35.942-9.093h12.124l-24.248 54.886h-12.534l7.7-16.957-16.548-37.93h12.86l10.158 25.56 10.486-25.56zm40.796-1.065c3.495 0 6.58.846 9.257 2.54s4.765 4.1 6.267 7.25 2.253 6.786 2.253 10.936-.75 7.823-2.253 11.018-3.604 5.68-6.308 7.455-5.775 2.662-9.216 2.662c-2.785 0-5.297-.587-7.537-1.76s-3.96-2.8-5.16-4.874v5.98h-12.206V22.566h12.37v22.938c1.202-2.02 2.908-3.59 5.12-4.7s4.683-1.68 7.414-1.68zm-3.604 32.44c2.895 0 5.134-1.024 6.717-3.072s2.376-4.93 2.376-8.643c0-3.66-.792-6.458-2.376-8.397s-3.823-2.908-6.717-2.908-5.134.997-6.717 3-2.376 4.82-2.376 8.48c0 3.714.792 6.567 2.376 8.56s3.823 3 6.717 3zm48.25 9.42c-4.26 0-8-.86-11.223-2.58s-5.707-4.15-7.455-7.29-2.62-6.84-2.62-11.1.874-7.96 2.62-11.1 4.233-5.557 7.455-7.25 6.963-2.54 11.223-2.54 8 .846 11.223 2.54 5.707 4.1 7.455 7.25 2.62 6.84 2.62 11.1-.874 7.96-2.62 11.1-4.233 5.57-7.455 7.29-6.963 2.58-11.223 2.58zm0-9.42c6.007 0 9.01-3.85 9.01-11.55 0-3.878-.778-6.772-2.335-8.684s-3.782-2.867-6.676-2.867c-6.007 0-9.01 3.85-9.01 11.55s3.004 11.55 9.01 11.55zm46.12 9.42c-4.26 0-8-.86-11.223-2.58s-5.707-4.15-7.455-7.29-2.62-6.84-2.62-11.1.874-7.96 2.62-11.1 4.233-5.557 7.455-7.25 6.963-2.54 11.223-2.54 8 .846 11.223 2.54 5.707 4.1 7.455 7.25 2.62 6.84 2.62 11.1-.874 7.96-2.62 11.1-4.233 5.57-7.455 7.29-6.963 2.58-11.223 2.58zm0-9.42c6.007 0 9.01-3.85 9.01-11.55 0-3.878-.778-6.772-2.335-8.684s-3.782-2.867-6.676-2.867c-6.007 0-9.01 3.85-9.01 11.55s3.004 11.55 9.01 11.55zM512 80.32h-15.155l-15.4-17.94v17.94h-12.37V22.566h12.37V57.3l14.828-17.12h14.746l-16.876 19.17L512 80.32z" fill="#333"/><mask id="B" fill="#fff"><use xlink:href="#A"/></mask><use fill="#ff4785" xlink:href="#A"/><path d="M60.69 12.587l.49-11.81L71.055 0l.425 12.18a.77.77 0 0 1-1.243.63l-3.807-3-4.508 3.42a.77.77 0 0 1-1.231-.644zm-12.627 26.01c0 2.003 13.492 1.043 15.303-.364 0-13.64-7.32-20.808-20.72-20.808s-20.91 7.28-20.91 18.198c0 19.017 25.664 19.38 25.664 29.754 0 2.912-1.426 4.64-4.562 4.64-4.087 0-5.703-2.087-5.513-9.185 0-1.54-15.588-2.02-16.064 0-1.2 17.2 9.505 22.16 21.767 22.16 11.88 0 21.197-6.333 21.197-17.798 0-20.382-26.044-19.836-26.044-29.936 0-4.095 3.042-4.64 4.848-4.64 1.9 0 5.323.335 5.038 7.978z" fill="#fff" mask="url(#B)"/></svg>