<svg xmlns="http://www.w3.org/2000/svg" width="256" height="290" preserveAspectRatio="xMidYMid"><path fill="#fff" d="M128 .048l128 72.405V217.3l-128 72.405L0 217.3V72.453z"/><path d="M233.153 212.287l-100.903 57.14V225l62.89-34.632 38.014 21.93zm6.907-6.23V86.654l-36.903 21.3v76.8l36.903 21.3zm-217.6 6.23l100.903 57.093v-44.438l-62.89-34.584-38.014 21.93zm-6.907-6.23V86.654l36.903 21.3v76.8l-36.903 21.3zm4.3-127.13l103.51-58.542v42.99l-66.85 36.758-36.66-21.205zm215.86 0L132.25 20.383v42.99l66.802 36.806 36.66-21.253z" fill="#8ed6fb"/><path d="M123.363 214.847l-62.02-34.15v-67.574l62.02 35.792v65.932zm8.888 0l62.02-34.1v-67.623l-62.02 35.792v65.932zm-66.753-109.55l62.31-34.246 62.26 34.246-62.26 35.937-62.31-35.937z" fill="#1c78c0"/></svg>