<svg xmlns="http://www.w3.org/2000/svg" xmlns:xlink="http://www.w3.org/1999/xlink" width="137" height="24"><defs><path d="M1.62 0l1.622 3.456H0L1.62 0zM0 4.002h3.243v15.463H0V4.002zm0 16.01h3.243v1.88H0v-1.88zM5.77 3.447l2.246-2.244L18.34 11.535 7.964 22.16l-2.242-2.13 8.15-8.48L5.77 3.448z" id="A"/><linearGradient x1="15.638%" y1="100%" x2="84.362%" y2="0%" id="B"><stop stop-color="#ec407a" offset="0%"/><stop stop-color="#ffa000" offset="100%"/></linearGradient></defs><g fill-rule="evenodd"><path d="M27.8 17.866l8.234-9.927h-8.1v-.87h9.353v.803l-8.21 9.927h8.167v.87H27.8v-.803zm16.938 1.026c-.82 0-1.58-.16-2.282-.48a5.638 5.638 0 0 1-1.824-1.316 6.26 6.26 0 0 1-1.645-4.272c0-.818.146-1.587.437-2.31s.7-1.353 1.197-1.896a5.563 5.563 0 0 1 1.801-1.283 5.413 5.413 0 0 1 2.25-.468c.82 0 1.58.16 2.28.48s1.306.75 1.813 1.293a5.917 5.917 0 0 1 1.186 1.897c.283.72.425 1.483.425 2.286v.28a.6.6 0 0 1-.023.211H40.152a5.295 5.295 0 0 0 1.488 3.346c.4.417.884.744 1.42.982a4.204 4.204 0 0 0 1.723.357 4.27 4.27 0 0 0 1.186-.167 4.85 4.85 0 0 0 1.085-.458 3.93 3.93 0 0 0 .895-.702c.26-.276.466-.577.615-.904l.985.268c-.164.416-.407.8-.727 1.15a4.92 4.92 0 0 1-1.119.903 5.71 5.71 0 0 1-1.398.591 5.809 5.809 0 0 1-1.567.212zm4.565-6.47a5.246 5.246 0 0 0-.459-1.873 5.002 5.002 0 0 0-1.007-1.462 4.517 4.517 0 0 0-1.42-.959 4.32 4.32 0 0 0-1.723-.346 4.32 4.32 0 0 0-1.723.346 4.517 4.517 0 0 0-2.406 2.432 5.633 5.633 0 0 0-.436 1.863h9.174zm9.04-4.35c-1.045.03-1.96.34-2.742.926s-1.33 1.395-1.644 2.42v7.25h-1.12V7.07h1.074v2.855c.403-.818.936-1.484 1.6-1.997s1.376-.806 2.137-.88l.402-.023h.29v1.048zm7.003 10.82c-.82 0-1.578-.16-2.27-.48a5.625 5.625 0 0 1-1.802-1.304 6.02 6.02 0 0 1-1.186-1.919 6.284 6.284 0 0 1-.425-2.298 6.2 6.2 0 0 1 .437-2.32c.3-.73.7-1.368 1.197-1.92a5.625 5.625 0 0 1 1.8-1.305 5.306 5.306 0 0 1 2.25-.48 5.23 5.23 0 0 1 2.237.48c.686.32 1.287.755 1.8 1.305a6.2 6.2 0 0 1 1.645 4.239c0 .803-.146 1.57-.436 2.298a6.184 6.184 0 0 1-1.198 1.919 5.625 5.625 0 0 1-1.8 1.305c-.694.32-1.444.48-2.25.48zm-4.565-5.956c0 .684.12 1.327.358 1.93a5.05 5.05 0 0 0 .973 1.572c.4.446.892.8 1.444 1.06a4.09 4.09 0 0 0 1.767.39c.627 0 1.216-.13 1.768-.4a4.586 4.586 0 0 0 1.454-1.082 5.212 5.212 0 0 0 1.343-3.547 5.19 5.19 0 0 0-.358-1.93 5.071 5.071 0 0 0-.985-1.584 4.866 4.866 0 0 0-1.443-1.082 3.927 3.927 0 0 0-1.756-.401c-.627 0-1.216.133-1.768.4a4.603 4.603 0 0 0-1.443 1.093c-.4.46-.74 1-.985 1.618a5.221 5.221 0 0 0-.369 1.952zm22.442 5.733h-1.12V12.2c0-2.87-.962-4.305-2.886-4.305-.477 0-.943.1-1.398.268s-.88.43-1.276.758a5.47 5.47 0 0 0-1.04 1.149 5.042 5.042 0 0 0-.671 1.417v7.183h-1.12V2.384h1.12v7.45a5.606 5.606 0 0 1 1.98-2.163 4.978 4.978 0 0 1 2.718-.803c.642 0 1.194.12 1.656.357s.847.58 1.152 1.026.53.985.672 1.617.212 1.343.212 2.13v6.67zm8.324.223c-.82 0-1.582-.16-2.283-.48a5.638 5.638 0 0 1-1.823-1.316 6.26 6.26 0 0 1-1.645-4.272c0-.818.146-1.587.437-2.31a6.07 6.07 0 0 1 1.197-1.896 5.563 5.563 0 0 1 1.8-1.283 5.413 5.413 0 0 1 2.25-.468c.82 0 1.58.16 2.282.48a5.68 5.68 0 0 1 1.812 1.293 5.917 5.917 0 0 1 1.186 1.897c.283.72.425 1.483.425 2.286v.28a.6.6 0 0 1-.022.211H86.96a5.295 5.295 0 0 0 1.488 3.346 4.58 4.58 0 0 0 1.42.982 4.204 4.204 0 0 0 1.723.357 4.27 4.27 0 0 0 1.186-.167 4.85 4.85 0 0 0 1.085-.458 3.93 3.93 0 0 0 .895-.702 3.31 3.31 0 0 0 .616-.904l.984.268c-.164.416-.406.8-.727 1.15a4.9 4.9 0 0 1-1.119.903 5.69 5.69 0 0 1-1.398.591 5.809 5.809 0 0 1-1.566.212zm4.564-6.47a5.246 5.246 0 0 0-.459-1.873 5.002 5.002 0 0 0-1.006-1.462 4.517 4.517 0 0 0-1.421-.959 4.32 4.32 0 0 0-1.723-.346 4.32 4.32 0 0 0-1.723.346 4.517 4.517 0 0 0-2.405 2.432 5.633 5.633 0 0 0-.437 1.863h9.174zm3.535 6.247V7.07h1.12v11.6h-1.12zm0-14.233V2.384h1.12v2.052h-1.12zm9.33 14.412a4.895 4.895 0 0 1-2.214-.502 5.56 5.56 0 0 1-1.734-1.339 6.397 6.397 0 0 1-1.142-1.907 6.075 6.075 0 0 1-.414-2.209c0-.788.13-1.547.392-2.275a6.1 6.1 0 0 1 1.108-1.93 5.33 5.33 0 0 1 1.711-1.328c.664-.327 1.4-.5 2.204-.5 1.015 0 1.898.264 2.652.792a7.6 7.6 0 0 1 1.913 1.93V7.067h1.03V18.89c0 .79-.15 1.48-.448 2.075a4.336 4.336 0 0 1-1.197 1.484c-.5.394-1.08.69-1.745.892s-1.36.3-2.092.3a7.93 7.93 0 0 1-1.812-.19 5.424 5.424 0 0 1-1.421-.535 4.695 4.695 0 0 1-1.096-.848 6.08 6.08 0 0 1-.84-1.104l.76-.513c.463.788 1.1 1.365 1.88 1.73a5.97 5.97 0 0 0 2.528.546c.597 0 1.16-.08 1.7-.245a4.12 4.12 0 0 0 1.387-.725 3.47 3.47 0 0 0 .94-1.194c.23-.475.346-1.033.346-1.673v-2.54a5.364 5.364 0 0 1-1.902 1.818 4.92 4.92 0 0 1-2.483.68zm.27-.96a3.89 3.89 0 0 0 1.442-.278 5.11 5.11 0 0 0 1.276-.726c.38-.297.693-.632.94-1.003s.4-.744.458-1.116V10.95a5.01 5.01 0 0 0-1.734-2.208 5.08 5.08 0 0 0-1.23-.636 3.956 3.956 0 0 0-1.332-.234c-.7 0-1.327.148-1.88.446a4.503 4.503 0 0 0-1.398 1.16 5.215 5.215 0 0 0-.872 1.617 5.702 5.702 0 0 0-.302 1.818 5.04 5.04 0 0 0 .358 1.897c.238.595.566 1.123.984 1.584s.9.825 1.477 1.093a4.191 4.191 0 0 0 1.812.401zm18.235.78h-1.12V12.2c0-2.87-.962-4.305-2.886-4.305a3.81 3.81 0 0 0-1.399.268c-.455.178-.88.43-1.275.758a5.47 5.47 0 0 0-1.04 1.149 5.042 5.042 0 0 0-.672 1.417v7.183h-1.12V2.384h1.12v7.45a5.606 5.606 0 0 1 1.98-2.163 4.978 4.978 0 0 1 2.718-.803c.64 0 1.193.12 1.656.357a3.11 3.11 0 0 1 1.152 1.026c.306.446.53.985.67 1.617s.213 1.343.213 2.13v6.67zm8.57-.558l-.303.168a3.02 3.02 0 0 1-.537.234 6.71 6.71 0 0 1-.727.2c-.268.06-.56.1-.872.1a2.86 2.86 0 0 1-.884-.134 2.1 2.1 0 0 1-.727-.401 1.917 1.917 0 0 1-.493-.647 2.072 2.072 0 0 1-.179-.893V7.983h-1.633v-.915h1.633v-3.97h1.12v3.97h2.707v.915h-2.707v8.478c0 .43.15.754.448.97a1.67 1.67 0 0 0 1.006.324c.463 0 .862-.08 1.197-.235l.616-.3.335.89z" fill="#000"/><mask id="C" fill="#fff"><use xlink:href="#A"/></mask><use fill="#fff" xlink:href="#A"/><path fill="url(#B)" mask="url(#C)" d="M0 0h18.37v22.16H0z"/></g></svg>