<?xml version="1.0" standalone="no"?>
<!DOCTYPE svg PUBLIC "-//W3C//DTD SVG 20010904//EN"
 "http://www.w3.org/TR/2001/REC-SVG-20010904/DTD/svg10.dtd">
<svg version="1.0" xmlns="http://www.w3.org/2000/svg"
 width="500.000000pt" height="500.000000pt" viewBox="0 0 500.000000 500.000000"
 preserveAspectRatio="xMidYMid meet">
<metadata>
Created by potrace 1.11, written by Peter Selinger 2001-2013
</metadata>
<g transform="translate(0.000000,500.000000) scale(0.100000,-0.100000)"
fill="#000000" stroke="none">
<path d="M940 2515 l0 -675 130 0 130 0 0 210 0 210 88 0 87 -1 155 -209 155
-209 164 -1 163 0 -24 33 c-14 17 -98 130 -188 250 l-163 217 56 58 c87 92
137 211 137 327 0 198 -140 387 -331 446 -53 17 -93 19 -310 19 l-249 0 0
-675z m505 396 c156 -70 164 -290 13 -365 -46 -23 -64 -26 -155 -26 l-103 0 0
205 0 205 103 0 c77 0 112 -5 142 -19z"/>
<path d="M2940 3101 c5 -11 89 -151 186 -313 97 -161 177 -298 177 -304 0 -6
-86 -152 -193 -325 -106 -173 -194 -317 -197 -321 -2 -5 65 -8 149 -8 l153 1
135 224 135 225 22 -38 c13 -20 74 -121 135 -224 l113 -188 153 0 c84 0 151 3
149 8 -2 4 -91 148 -197 321 -106 173 -193 319 -193 325 0 6 80 143 177 304
97 162 181 302 186 313 10 18 5 19 -137 19 l-148 0 -119 -206 c-66 -113 -125
-213 -131 -221 -10 -13 -34 23 -141 206 l-129 221 -148 0 c-142 0 -147 -1
-137 -19z"/>
<path d="M2290 2872 c-155 -52 -284 -199 -325 -373 -19 -82 -19 -216 0 -297
44 -186 176 -324 359 -377 45 -13 84 -16 163 -13 94 4 109 8 179 43 54 26 97
57 141 102 34 35 63 70 63 77 0 11 -186 126 -204 126 -4 0 -20 -15 -37 -34
-69 -79 -181 -99 -280 -48 -62 31 -107 94 -116 161 l-6 41 337 0 336 0 0 78
c-1 217 -116 410 -297 494 -59 28 -80 33 -163 35 -71 2 -109 -2 -150 -15z
m213 -216 c44 -19 83 -63 102 -115 8 -24 15 -45 15 -47 0 -2 -88 -4 -196 -4
l-195 0 6 23 c35 120 162 188 268 143z"/>
</g>
</svg>
