<svg width="51" height="23" viewBox="0 0 51 23" fill="none" xmlns="http://www.w3.org/2000/svg">
<path d="M4.17047 22.2787V15.5522H7.0789L12.1164 22.2787H17.2762L11.1843 14.1651C13.0842 12.8035 14.327 10.5851 14.327 8.07101C14.327 3.94538 10.9806 0.59491 6.85987 0.59491H0.0548706V22.2787H4.17047ZM4.17047 4.71033H6.85478C8.70374 4.71033 10.2165 6.21473 10.2165 8.07101C10.2165 9.92728 8.70374 11.4317 6.85478 11.4317H4.17047V4.71033V4.71033Z" fill="black"/>
<path d="M31.118 19.0047C29.2588 21.5443 27.1705 22.6968 24.4199 22.6968C19.688 22.6968 16.2855 19.0812 16.2855 14.058C16.2855 9.13685 19.6065 5.3631 23.8953 5.3631C28.1332 5.3631 31.5051 9.21334 31.5051 13.9764C31.5051 14.3946 31.4796 14.7618 31.4287 15.1799H20.6303C20.8901 17.5105 22.3825 18.9486 24.5269 18.9486C25.7035 18.9486 26.7783 18.2958 27.7155 17.0362L31.118 19.0047ZM27.0941 11.8295C26.7019 9.8661 25.6017 8.84617 23.931 8.84617C22.3367 8.84617 21.1346 9.94769 20.7118 11.8295H27.0941Z" fill="black"/>
<path d="M45.2159 22.2787L40.8202 15.0015L36.4245 22.2787H31.5856L38.0442 11.855L31.9065 1.67096H36.5875L40.8253 8.87168L45.0631 1.67096H49.7441L43.5962 11.855L50.0548 22.2787H45.2159V22.2787Z" fill="black"/>
</svg>
