<svg xmlns="http://www.w3.org/2000/svg" width="256" height="301" preserveAspectRatio="xMidYMid"><path d="M78.39.858c-1.404.013-2.862.352-4.2 1.088-4.218 2.338-5.764 7.758-3.428 11.972l9.523 17.196C57.35 45.31 42.147 69.558 42.147 97.233v5.142c-4.406-5.07-10.884-8.272-18.12-8.272C10.767 94.104 0 104.87 0 118.13v74.008c0 13.26 10.767 24.026 24.026 24.026 7.237 0 13.715-3.202 18.12-8.272v10.367c0 13.976 11.437 25.413 25.413 25.413h6.45v32.923c0 13.26 10.767 24.026 24.026 24.026s24.026-10.767 24.026-24.026V243.67h11.156v32.923c0 13.26 10.767 24.026 24.026 24.026s24.026-10.767 24.026-24.026V243.67h6.45c13.976 0 25.413-11.437 25.413-25.413V207.89c4.406 5.07 10.884 8.272 18.12 8.272 13.26 0 24.026-10.767 24.026-24.026V118.13c0-13.26-10.767-24.026-24.026-24.026-7.237 0-13.715 3.202-18.12 8.272v-5.142c0-27.67-15.237-51.893-38.174-66.09l9.55-17.223c2.336-4.214.79-9.634-3.428-11.972-1.328-.736-2.786-1.075-4.2-1.088-3.114-.03-6.17 1.612-7.782 4.517l-9.986 18.04c-9.764-3.603-20.388-5.578-31.48-5.578-11.082 0-21.725 1.954-31.48 5.55L86.17 5.375C84.56 2.47 81.504.83 78.39.858z" fill="#fff"/><g fill="#a4c639"><path d="M24.026 100.362a17.66 17.66 0 0 0-17.767 17.767v74.008a17.66 17.66 0 0 0 17.767 17.767 17.66 17.66 0 0 0 17.767-17.767V118.13a17.66 17.66 0 0 0-17.767-17.767zm207.223 0a17.66 17.66 0 0 0-17.767 17.767v74.008a17.767 17.767 0 1 0 35.535 0V118.13a17.66 17.66 0 0 0-17.767-17.767zM98.034 184.818a17.66 17.66 0 0 0-17.767 17.767v74.008a17.66 17.66 0 0 0 17.767 17.767 17.66 17.66 0 0 0 17.767-17.767v-74.008a17.66 17.66 0 0 0-17.767-17.767zm59.207 0a17.66 17.66 0 0 0-17.767 17.767v74.008a17.66 17.66 0 0 0 17.767 17.767 17.66 17.66 0 0 0 17.767-17.767v-74.008a17.66 17.66 0 0 0-17.767-17.767z"/><path d="M78.443 7.117a2.47 2.47 0 0 0-1.197.327c-1.267.702-1.684 2.158-.98 3.428l12.516 22.61c-24.08 12.53-40.345 36.34-40.378 63.67H206.87c-.033-27.328-16.298-51.14-40.378-63.67l12.516-22.61c.704-1.27.287-2.726-.98-3.428-.386-.214-.777-.322-1.197-.327-.9-.01-1.75.44-2.23 1.306l-12.68 22.856c-10.372-4.6-22.006-7.183-34.283-7.183s-23.91 2.582-34.283 7.183L80.675 8.423c-.48-.865-1.332-1.315-2.23-1.306zm-30.04 96.293v114.85c0 10.612 8.543 19.155 19.155 19.155h120.155c10.612 0 19.155-8.543 19.155-19.155V103.41H48.405z"/></g><path d="M91.068 54.923a6.66 6.66 0 0 0-6.612 6.612 6.66 6.66 0 0 0 6.612 6.612 6.66 6.66 0 0 0 6.612-6.612 6.66 6.66 0 0 0-6.612-6.612zm73.138 0a6.66 6.66 0 0 0-6.612 6.612 6.66 6.66 0 0 0 6.612 6.612 6.66 6.66 0 0 0 6.612-6.612 6.66 6.66 0 0 0-6.612-6.612z" fill="#fff"/></svg>