<svg xmlns="http://www.w3.org/2000/svg" width="256" height="257" preserveAspectRatio="xMidYMid"><defs><linearGradient x1="49.9976632%" y1="0.70578635%" x2="49.9976632%" y2="96.9898739%" id="A"><stop stop-color="#86bbe5" offset="0%"/><stop stop-color="#1072ba" offset="100%"/></linearGradient></defs><path d="M127.79.035s75.32-3.38 115.253 72.328H121.38s-22.96-.74-42.573 27.114c-5.634 11.69-11.69 23.734-4.895 47.467l-51.975-90.04S51.693 3.028 127.79.035z" fill="#ef3f36"/><path d="M239.133 192.23s-34.755 66.94-120.253 63.63L179.728 150.5s12.15-19.508-2.183-50.425c-7.29-10.74-14.72-21.973-38.664-27.96h103.95s31.727 52.714-3.697 120.112z" fill="#fcd900"/><path d="M16.973 192.757s-40.6-63.56 5.035-135.958L82.82 162.157s10.846 20.283 44.756 23.31c12.923-.95 26.375-1.76 43.56-19.473L119.16 256s-61.553 1.127-102.19-63.243z" fill="#61bc5b"/><path d="M118.845 256.493l17.114-71.412s18.804-1.48 34.58-18.77l-51.693 90.18z" fill="#5ab055"/><path d="M70.462 129.056c0-31.48 25.53-57 57-57s57 25.53 57 57-25.53 57-57 57c-31.48-.035-57-25.53-57-57z" fill="#fff"/><path d="M80.004 129.056c0-26.2 21.234-47.467 47.467-47.467 26.2 0 47.467 21.234 47.467 47.467 0 26.2-21.234 47.467-47.467 47.467-26.2 0-47.467-21.27-47.467-47.467z" fill="url(#A)"/><path d="M242.795 72.152l-70.462 20.67s-10.634-15.6-33.488-20.67h103.95z" fill="#eaca05"/><path d="M72.54 144.34l-50.6-87.434 52.186 51.623s-5.352 11.022-3.345 26.797l1.76 9.015z" fill="#df3a32"/></svg>