<svg xmlns="http://www.w3.org/2000/svg" width="256" height="252" preserveAspectRatio="xMidYMid"><path d="M256 131.593c0-20.238-5.232-39.25-14.408-55.772 39.1-88.514-41.907-75.55-46.417-74.667-17.164 3.36-33.044 8.75-47.69 15.586-2.16-.122-4.333-.188-6.523-.188-54.665 0-100.423 38.128-112.134 89.24C57.64 73.47 77.802 60.428 89.877 55.21l-5.67 5.218-1.822 1.762-3.638 3.545-2.1 2.133-3.146 3.236-2.17 2.31-2.865 3.105-2.168 2.42-2.648 3.015-2.148 2.506-2.45 2.927-2.125 2.588-2.234 2.794-2.13 2.703-1.963 2.567-2.19 2.893-1.505 2.055c-4.545 6.202-8.698 12.285-12.45 18.128-.01.014-.02.03-.027.043l-2.874 4.557-.153.246-2.812 4.613c-2.366 3.95-4.56 7.756-6.537 11.338C11.7 160.69 6.646 173.807 6.428 174.586c-32.718 116.97 69.396 67.575 83.645 60.2 15.343 7.58 32.616 11.846 50.888 11.846 50.022 0 92.58-31.93 108.422-76.52h-60.446c-8.944 15.1-26.163 25.345-45.945 25.345-28.984 0-52.48-21.96-52.48-49.05h164.54a116.15 116.15 0 0 0 .947-14.817zM234.5 18.386c9.907 6.686 17.852 17.187 4.207 52.55-13.087-21.048-32.778-37.558-56.18-46.633 10.646-5.142 37.01-16.017 51.974-5.916zM23.98 234.552c-8.07-8.275-9.495-28.43 8.3-65.155 8.986 25.835 26.917 47.483 50.093 61.22-11.526 6.344-42.126 20.628-58.403 3.934zm66.28-119.6c.92-26.33 23.834-47.4 51.987-47.4s51.068 21.08 51.987 47.4H90.26z" fill="#1ebbee"/></svg>