<svg xmlns="http://www.w3.org/2000/svg" width="256" height="278" preserveAspectRatio="xMidYMid"><path d="M51.85 73.454C18.857 93.99 0 123.176 0 123.176S4.886 61.98 51.85 26.173C70.527 11.93 96.063 0 130.41 0c12.903 0 39.96 2.245 64.33 17.27s34.218 27.612 45.198 46.04c4.738 7.952 8.597 18.167 11.004 28.02 4.5 18.462 5.058 40.54 5.058 40.54v29.086H81.822s-4.254 58.52 75.85 58.52c27.86 0 37.614-4.377 46.777-7.1 14.344-4.248 28.195-13.716 28.195-13.716l.026 58.468s-32.783 20.193-82.3 20.193c-13.947 0-28.645-1.17-42.82-5.77-12.386-4.02-38.327-14.86-55.7-40.263-6.142-8.987-12.797-20.945-16.093-32.63-3.564-12.63-3.52-24.902-3.52-31.662 0-25.284 8.638-49.424 23.628-66.876C75.28 77.528 99.822 67.577 99.822 67.577s-7.994 9.32-12.91 20.922-6.262 23.277-6.262 23.277H179s5.752-58.77-55.65-58.77c-23.136 0-51.552 8.03-71.5 20.448z" fill="#3177bc"/></svg>