<svg xmlns="http://www.w3.org/2000/svg" width="256" height="256" preserveAspectRatio="xMidYMid"><style><![CDATA[.B{fill:#fff}.C{fill:#f3f3f3}]]></style><defs><linearGradient x1="50%" y1="100%" x2="50%" y2="3.55271367e-13%" id="A"><stop stop-color="#dbdbda" offset="25%"/><stop stop-color="#fff" offset="100%"/></linearGradient><filter x="-50%" y="-50%" width="200%" height="200%" id="B"><feOffset dy="2" in="SourceAlpha"/><feGaussianBlur stdDeviation="2"/><feColorMatrix values="0 0 0 0 0 0 0 0 0 0 0 0 0 0 0 0 0 0 0.266007133 0" result="C"/><feMerge><feMergeNode in="C"/><feMergeNode in="SourceGraphic"/></feMerge></filter><radialGradient cx="57.0254209%" cy="39.0167405%" fx="57.0254209%" fy="39.0167405%" r="61.0315689%" id="C"><stop stop-color="#2abce1" offset="0%"/><stop stop-color="#2abbe1" offset="11.3629426%"/><stop stop-color="#3375f8" offset="100%"/></radialGradient><linearGradient x1="49.0502524%" y1="35.7034487%" x2="25.7128956%" y2="77.5718894%" id="D"><stop stop-opacity="0" offset="0%"/><stop offset="100%"/></linearGradient><filter x="-50%" y="-50%" width="200%" height="200%" id="E"><feOffset dy="1" in="SourceAlpha"/><feGaussianBlur stdDeviation="2"/><feColorMatrix values="0 0 0 0 0 0 0 0 0 0 0 0 0 0 0 0 0 0 13 0" result="C"/><feMerge><feMergeNode in="C"/><feMergeNode in="SourceGraphic"/></feMerge></filter></defs><g transform="translate(4 2)"><circle fill="url(#A)" filter="url(#B)" cx="124" cy="124" r="124"/><circle fill="url(#C)" cx="124" cy="124" r="114.7"/><path d="M124.194 37.2c-.775 0-1.453-.58-1.453-1.356V15.597c0-.775.678-1.356 1.453-1.356s1.453.58 1.453 1.356v20.247c-.097.775-.678 1.356-1.453 1.356z" class="C"/><path d="M124.194 37.297c-.872 0-1.55-.678-1.55-1.453V15.597c0-.775.678-1.453 1.55-1.453s1.55.678 1.55 1.453v20.247c0 .775-.775 1.453-1.55 1.453zm0-22.96c-.678 0-1.356.58-1.356 1.26v20.247c0 .678.58 1.26 1.356 1.26.678 0 1.356-.58 1.356-1.26V15.597c-.097-.678-.678-1.26-1.356-1.26z" class="B"/><path d="M133.882 26.35c-.775-.097-1.356-.678-1.356-1.453l.678-9.01c.097-.775.775-1.356 1.55-1.26s1.356.678 1.356 1.453l-.678 9.01c-.097.775-.775 1.356-1.55 1.26z" class="C"/><path d="M133.882 26.447c-.872-.097-1.453-.775-1.453-1.55l.678-9.01c.097-.775.775-1.453 1.647-1.356s1.453.775 1.453 1.55l-.678 9.01c-.097.872-.775 1.453-1.647 1.356zm.872-11.722c-.678 0-1.356.484-1.356 1.163l-.678 9.01c0 .678.484 1.26 1.26 1.356.678 0 1.356-.484 1.356-1.163l.678-9.01c0-.678-.58-1.26-1.26-1.356z" class="B"/><path d="M141.147 38.944c-.775-.194-1.26-.872-1.162-1.647l3.972-19.86c.194-.775.872-1.26 1.647-1.066s1.26.872 1.162 1.647l-3.972 19.86c-.097.678-.872 1.163-1.647 1.066z" class="C"/><path d="M141.147 39.04c-.872-.194-1.356-.97-1.26-1.744l3.972-19.86c.194-.775.97-1.356 1.84-1.163s1.356.97 1.26 1.744l-3.972 19.86c-.194.775-.97 1.26-1.84 1.163zM145.7 16.47c-.678-.097-1.356.29-1.55.97l-3.972 19.86a1.37 1.37 0 0 0 1.066 1.55c.678.097 1.356-.29 1.55-.97l3.972-19.86c.097-.775-.387-1.356-1.066-1.55z" class="B"/><path d="M152.772 30.225c-.775-.194-1.26-.97-1.066-1.744l2.422-8.72c.194-.775.97-1.162 1.744-.97s1.26.97 1.066 1.744l-2.422 8.72c-.194.775-.97 1.162-1.744.97z" class="C"/><path d="M152.772 30.322c-.775-.194-1.356-1.066-1.066-1.84l2.422-8.72c.194-.775 1.066-1.26 1.84-1.066s1.356 1.066 1.066 1.84l-2.422 8.72c-.194.775-.97 1.26-1.84 1.066zm3.197-11.334c-.678-.194-1.453.194-1.647.872l-2.422 8.72c-.194.678.194 1.356.97 1.55.678.194 1.453-.194 1.647-.872l2.422-8.72c.097-.678-.29-1.356-.97-1.55z" class="B"/><path d="M157.52 43.885c-.775-.29-1.066-1.163-.775-1.84l7.75-18.697c.29-.678 1.162-1.066 1.84-.678.775.29 1.066 1.163.775 1.84l-7.75 18.697c-.29.678-1.162 1.066-1.84.678z" class="C"/><path d="M157.52 43.982c-.775-.29-1.163-1.163-.872-1.937l7.75-18.697c.29-.775 1.162-1.066 2.034-.775.775.29 1.162 1.163.872 1.938l-7.75 18.697c-.387.775-1.26 1.163-2.034.775zm8.816-21.216c-.678-.29-1.453 0-1.744.678l-7.75 18.697c-.29.678.097 1.356.775 1.647s1.453 0 1.744-.678l7.75-18.697c.194-.58-.097-1.356-.775-1.647z" class="B"/><path d="M170.597 37.685c-.678-.387-.97-1.162-.678-1.84l4.07-8.04c.387-.678 1.162-.97 1.938-.58.678.388.97 1.163.678 1.84l-4.07 8.04c-.388.678-1.163.97-1.937.58z" class="C"/><path d="M170.597 37.782a1.48 1.48 0 0 1-.678-2.034l4.07-8.04a1.48 1.48 0 0 1 2.034-.678 1.48 1.48 0 0 1 .678 2.034l-4.07 8.04a1.48 1.48 0 0 1-2.034.678zm5.328-10.56c-.678-.29-1.453-.097-1.744.58l-4.07 8.04c-.29.58 0 1.356.58 1.744.678.29 1.453.097 1.744-.58l4.07-8.04c.29-.58 0-1.356-.58-1.744z" class="B"/><path d="M172.535 52.022c-.678-.484-.872-1.356-.388-1.937l11.238-16.76c.387-.678 1.26-.775 1.938-.387.678.484.872 1.356.387 1.938l-11.237 16.76c-.388.678-1.26.872-1.937.388z" class="C"/><path d="M172.535 52.12c-.678-.484-.872-1.453-.484-2.13l11.237-16.76c.484-.678 1.356-.872 2.13-.388.678.484.872 1.453.484 2.13l-11.237 16.76c-.484.678-1.453.872-2.13.387zm12.787-19.084c-.58-.387-1.453-.29-1.84.29l-11.237 16.76c-.388.58-.194 1.356.387 1.744s1.453.29 1.84-.29L185.7 34.875c.388-.58.194-1.453-.387-1.84z" class="B"/><path d="M186.68 48.438c-.58-.484-.775-1.356-.29-1.937l5.62-7.072c.484-.58 1.356-.678 1.938-.194s.775 1.356.29 1.938l-5.62 7.072c-.484.58-1.356.678-1.937.194z" class="C"/><path d="M186.582 48.535c-.678-.484-.775-1.453-.29-2.13l5.62-7.072c.484-.678 1.453-.775 2.13-.194.678.484.775 1.453.29 2.13l-5.62 7.072c-.484.678-1.453.775-2.13.194zm7.266-9.203c-.58-.484-1.356-.387-1.84.194l-5.62 7.072c-.387.58-.29 1.356.29 1.84s1.356.388 1.84-.194l5.62-7.072c.388-.58.29-1.453-.29-1.84z" class="B"/><path d="M185.7 62.97c-.58-.58-.58-1.453 0-1.937l14.338-14.24c.58-.58 1.453-.484 1.938 0s.58 1.453 0 1.938l-14.24 14.24a1.4 1.4 0 0 1-2.034 0z" class="C"/><path d="M185.613 63.066a1.52 1.52 0 0 1 0-2.131l14.337-14.24a1.52 1.52 0 0 1 2.131 0 1.52 1.52 0 0 1 0 2.131l-14.338 14.24a1.52 1.52 0 0 1-2.131 0zm16.372-16.275a1.35 1.35 0 0 0-1.841 0l-14.338 14.24a1.35 1.35 0 0 0 0 1.841 1.35 1.35 0 0 0 1.841 0l14.338-14.24c.484-.484.484-1.26 0-1.84z" class="B"/><path d="M200.24 62.194c-.484-.58-.484-1.453.097-1.937l6.878-5.812c.58-.484 1.453-.388 1.938.194s.484 1.453-.097 1.938l-6.878 5.813c-.58.484-1.453.387-1.937-.194z" class="C"/><path d="M200.144 62.29c-.58-.678-.484-1.647.097-2.13l6.878-5.812c.58-.58 1.55-.484 2.13.194s.484 1.647-.097 2.13l-6.878 5.813c-.58.58-1.55.484-2.13-.194zm8.912-7.653c-.484-.58-1.26-.58-1.84-.194l-6.878 5.813c-.484.484-.58 1.26-.097 1.84s1.26.58 1.84.194l6.878-5.812c.58-.484.58-1.26.097-1.84z" class="B"/><path d="M196.366 76.144c-.484-.678-.29-1.55.388-1.937L213.6 62.97c.678-.388 1.55-.194 1.938.388.484.678.29 1.55-.387 1.937l-16.856 11.237c-.58.388-1.453.194-1.937-.388z" class="C"/><path d="M196.27 76.144c-.484-.678-.29-1.647.387-2.13l16.856-11.237c.678-.484 1.647-.29 2.13.484.484.678.29 1.647-.388 2.13L198.4 76.628c-.678.484-1.647.29-2.13-.484zm19.18-12.69c-.387-.58-1.162-.775-1.744-.388L196.85 74.303c-.58.388-.775 1.163-.29 1.84.388.58 1.163.775 1.744.388l16.856-11.237c.58-.484.678-1.26.29-1.84z" class="B"/><path d="M210.8 78.178c-.388-.678-.194-1.55.484-1.937l7.847-4.456c.678-.387 1.55-.097 1.938.58s.194 1.55-.484 1.937l-7.847 4.456c-.678.387-1.55.097-1.937-.58z" class="C"/><path d="M210.704 78.275c-.387-.775-.194-1.647.484-2.034l7.847-4.456c.678-.387 1.647-.097 2.034.58.388.775.194 1.647-.484 2.034l-7.847 4.456c-.678.388-1.647.097-2.034-.58zm10.27-5.812c-.388-.678-1.163-.872-1.744-.484l-7.847 4.456c-.58.388-.775 1.162-.484 1.744.388.678 1.162.872 1.744.484l7.847-4.456c.58-.29.775-1.066.484-1.744z" class="B"/><path d="M204.3 91.063c-.29-.775 0-1.55.775-1.84l18.697-7.75c.678-.29 1.55.097 1.84.775.29.775 0 1.55-.775 1.84l-18.697 7.75c-.678.29-1.55 0-1.84-.775z" class="C"/><path d="M204.213 91.16c-.29-.775 0-1.647.775-2.034l18.697-7.75c.775-.29 1.647.097 1.938.872s0 1.647-.775 2.034l-18.697 7.75c-.775.29-1.647-.097-1.937-.872zm21.216-8.816c-.29-.678-1.066-.97-1.647-.775l-18.697 7.75c-.678.29-.97 1.066-.678 1.744s1.066.97 1.647.775l18.697-7.75c.678-.29.97-1.066.678-1.744z" class="B"/><path d="M217.97 95.907c-.29-.775.097-1.55.872-1.84l8.525-2.81c.678-.29 1.55.194 1.744.872.29.775-.097 1.55-.872 1.84l-8.525 2.81c-.678.29-1.453-.097-1.744-.872z" class="C"/><path d="M217.872 96.003c-.29-.775.097-1.647.97-1.937l8.525-2.81c.775-.29 1.647.194 1.938.97s-.097 1.647-.97 1.938l-8.525 2.81c-.775.194-1.647-.194-1.937-.97zm11.238-3.68c-.194-.678-.97-1.066-1.647-.872l-8.525 2.81c-.678.194-.97.97-.775 1.647s.97 1.066 1.647.872l8.525-2.81c.678-.29.97-.97.775-1.647z" class="B"/><path d="M209.25 107.435c-.194-.775.29-1.55 1.066-1.647l19.86-3.875c.775-.194 1.453.388 1.647 1.163s-.29 1.55-1.066 1.647l-19.86 3.875c-.775.097-1.55-.388-1.647-1.162z" class="C"/><path d="M209.057 107.435c-.194-.872.387-1.647 1.162-1.84l19.86-3.875c.775-.194 1.55.388 1.744 1.26s-.388 1.647-1.162 1.84l-19.86 3.875c-.775.194-1.55-.387-1.744-1.26zm22.572-4.36c-.097-.678-.775-1.163-1.453-1.066l-19.86 3.875c-.678.097-1.163.872-.97 1.55.097.678.775 1.162 1.453 1.066l19.86-3.875c.678-.194 1.162-.872.97-1.55z" class="B"/><path d="M221.65 114.894c-.097-.775.387-1.453 1.162-1.55l8.912-1.066c.775-.097 1.453.484 1.55 1.26s-.388 1.453-1.162 1.55l-8.913 1.066c-.678.097-1.453-.484-1.55-1.26z" class="C"/><path d="M221.554 114.894c-.097-.872.484-1.647 1.26-1.744l8.912-1.066c.775-.097 1.55.484 1.647 1.356s-.484 1.647-1.26 1.744l-8.913 1.066c-.775.097-1.55-.484-1.647-1.356zm11.722-1.356c-.097-.678-.775-1.26-1.453-1.162l-8.912 1.066c-.678.097-1.163.775-1.066 1.453s.775 1.26 1.453 1.163l8.912-1.066c.678-.097 1.162-.775 1.066-1.453z" class="B"/><path d="M210.8 124.29c0-.775.58-1.453 1.356-1.453h20.247c.775 0 1.356.678 1.356 1.453s-.58 1.453-1.356 1.453h-20.247c-.775 0-1.356-.678-1.356-1.453z" class="C"/><path d="M210.704 124.29c0-.872.678-1.55 1.453-1.55h20.247c.775 0 1.453.678 1.453 1.55s-.678 1.55-1.453 1.55h-20.247c-.775 0-1.453-.678-1.453-1.55zm22.96.097c0-.678-.58-1.356-1.26-1.356h-20.247c-.678 0-1.26.58-1.26 1.356 0 .678.58 1.356 1.26 1.356h20.247c.678-.097 1.26-.678 1.26-1.356z" class="B"/><path d="M221.554 134.075c.097-.775.678-1.356 1.453-1.356l9.01.678c.775.097 1.356.775 1.26 1.55s-.678 1.356-1.453 1.356l-9.01-.678c-.678-.097-1.26-.775-1.26-1.55z" class="C"/><path d="M221.457 134.075c.097-.872.775-1.453 1.55-1.453l9.01.678c.775.097 1.453.775 1.356 1.647s-.775 1.453-1.55 1.453l-9.01-.678c-.775-.097-1.356-.872-1.356-1.647zm11.82.872a1.23 1.23 0 0 0-1.162-1.356l-9.01-.678c-.678 0-1.26.484-1.356 1.26a1.23 1.23 0 0 0 1.163 1.356l9.01.678c.678 0 1.26-.58 1.356-1.26z" class="B"/><path d="M209.057 141.147c.194-.775.872-1.26 1.647-1.162l19.86 3.972c.775.194 1.26.872 1.066 1.647s-.872 1.26-1.647 1.162l-19.86-3.972c-.678-.097-1.162-.872-1.066-1.647z" class="C"/><path d="M208.96 141.147c.194-.872.97-1.356 1.744-1.26l19.86 3.972c.775.194 1.356.97 1.162 1.84s-.97 1.356-1.744 1.26l-19.86-3.972c-.775-.194-1.26-.97-1.162-1.84zm22.572 4.553c.097-.678-.29-1.356-.97-1.55l-19.86-3.972a1.37 1.37 0 0 0-1.55 1.066c-.097.678.29 1.356.97 1.55l19.86 3.972c.775.097 1.356-.387 1.55-1.066z" class="B"/><path d="M217.776 152.772c.194-.775.97-1.26 1.744-1.066l8.72 2.422c.775.194 1.162.97.97 1.744s-.97 1.26-1.744 1.066l-8.72-2.422c-.775-.194-1.162-.97-.97-1.744z" class="C"/><path d="M217.68 152.772c.194-.775 1.066-1.356 1.84-1.066l8.72 2.422c.775.194 1.26 1.066 1.066 1.84s-1.066 1.356-1.84 1.066l-8.72-2.422c-.775-.194-1.26-.97-1.066-1.84zm11.334 3.197c.194-.678-.194-1.453-.872-1.647l-8.72-2.422c-.678-.194-1.356.194-1.55.97-.194.678.194 1.453.872 1.647l8.72 2.422c.678.097 1.356-.29 1.55-.97z" class="B"/><path d="M204.116 157.422c.29-.775 1.162-1.066 1.84-.775l18.697 7.75c.678.29 1.066 1.162.775 1.84-.29.775-1.162 1.066-1.84.775l-18.697-7.75c-.775-.29-1.066-1.162-.775-1.84z" class="C"/><path d="M204.02 157.325c.29-.775 1.162-1.162 1.938-.872l18.697 7.75c.775.29 1.066 1.162.775 2.034-.29.775-1.162 1.162-1.937.872l-18.697-7.75c-.775-.387-1.066-1.26-.775-2.034zm21.216 8.816c.29-.678 0-1.453-.678-1.744l-18.697-7.75c-.678-.29-1.356.097-1.647.775s0 1.453.678 1.744l18.697 7.75c.678.194 1.453-.097 1.647-.775z" class="B"/><path d="M210.413 170.5c.388-.678 1.162-.97 1.84-.678l8.04 4.07c.678.29.97 1.162.58 1.938-.387.678-1.162.97-1.84.678l-8.04-4.07c-.678-.387-.97-1.26-.58-1.937z" class="C"/><path d="M210.316 170.403a1.48 1.48 0 0 1 2.034-.678l8.04 4.07a1.48 1.48 0 0 1-1.356 2.713l-8.04-4.07c-.775-.29-1.066-1.26-.678-2.034zm10.462 5.328c.29-.678.097-1.453-.58-1.744l-8.04-4.07c-.58-.29-1.356 0-1.744.58-.29.678-.097 1.453.58 1.744l8.04 4.07c.678.29 1.453.097 1.744-.58z" class="B"/><path d="M196.172 172.34c.484-.678 1.26-.872 1.938-.387l16.856 11.238c.678.387.775 1.26.388 1.938-.484.678-1.26.872-1.937.387l-16.856-11.238c-.678-.484-.872-1.356-.387-1.937z" class="C"/><path d="M196.075 172.244c.484-.678 1.453-.872 2.13-.484l16.856 11.237c.678.484.872 1.356.387 2.13-.484.678-1.453.872-2.13.484l-16.856-11.238c-.775-.484-.872-1.453-.388-2.13zm19.084 12.787c.387-.58.29-1.453-.29-1.84l-16.856-11.238c-.58-.387-1.356-.194-1.744.387s-.29 1.453.29 1.84l16.856 11.237c.58.388 1.356.194 1.744-.387z" class="B"/><path d="M199.757 186.388c.484-.58 1.356-.775 1.938-.29l7.072 5.522c.58.484.678 1.356.194 1.938s-1.356.775-1.937.29l-7.072-5.522c-.58-.484-.678-1.356-.194-1.937z" class="C"/><path d="M199.66 186.29c.484-.678 1.453-.775 2.13-.29l7.072 5.522c.678.484.775 1.453.29 2.13s-1.453.775-2.13.29l-7.072-5.522c-.678-.484-.775-1.453-.29-2.13zm9.3 7.266c.484-.58.388-1.356-.194-1.84l-7.072-5.522c-.58-.387-1.356-.29-1.84.29s-.388 1.356.194 1.84l7.072 5.522c.58.387 1.356.29 1.84-.29z" class="B"/><path d="M185.322 185.42c.58-.58 1.453-.58 1.938 0l14.338 14.24c.58.58.484 1.453 0 1.938-.58.58-1.453.58-1.937 0l-14.338-14.24c-.484-.484-.484-1.453 0-1.937z" class="C"/><path d="M185.322 185.322a1.52 1.52 0 0 1 2.131 0l14.338 14.24a1.52 1.52 0 0 1 0 2.131 1.52 1.52 0 0 1-2.131 0l-14.338-14.24a1.37 1.37 0 0 1 0-2.131zm16.275 16.178a1.35 1.35 0 0 0 0-1.841l-14.338-14.24a1.35 1.35 0 0 0-1.841 0 1.35 1.35 0 0 0 0 1.841l14.338 14.24c.484.58 1.26.58 1.84 0z" class="B"/><path d="M186.194 199.853c.58-.484 1.453-.484 1.938.097l5.91 6.78c.484.58.387 1.453-.194 1.938s-1.453.484-1.937-.097l-5.91-6.78c-.484-.484-.387-1.356.194-1.937z" class="C"/><path d="M186.097 199.853c.678-.58 1.55-.484 2.13.097l5.91 6.78c.58.58.484 1.55-.194 2.13s-1.55.484-2.13-.097l-5.91-6.78c-.484-.678-.484-1.647.194-2.13zm7.75 8.816c.58-.484.58-1.26.194-1.84l-5.91-6.78c-.484-.484-1.26-.58-1.84-.097s-.58 1.26-.194 1.84l5.91 6.78c.484.58 1.26.58 1.84.097z" class="B"/><path d="M172.244 196.172c.678-.484 1.55-.29 1.938.387l11.237 16.76c.388.678.194 1.55-.387 1.938-.678.484-1.55.29-1.937-.387l-11.238-16.76c-.387-.678-.194-1.55.388-1.937z" class="C"/><path d="M172.244 196.075c.678-.484 1.647-.29 2.13.388l11.238 16.76c.484.678.29 1.647-.484 2.13-.678.484-1.647.29-2.13-.388l-11.237-16.76c-.484-.775-.29-1.647.484-2.13zm12.787 19.084c.58-.388.775-1.163.387-1.744l-11.237-16.76c-.388-.58-1.162-.678-1.84-.29-.58.388-.775 1.162-.387 1.744l11.238 16.76a1.47 1.47 0 0 0 1.841.291z" class="B"/><path d="M170.2 210.5c.678-.388 1.55-.194 1.938.484l4.456 7.847c.387.678.097 1.55-.58 1.938s-1.55.194-1.937-.484l-4.456-7.847c-.29-.678-.097-1.55.58-1.937z" class="C"/><path d="M170.2 210.413c.775-.387 1.647-.194 2.034.484l4.456 7.847c.388.678.194 1.647-.58 2.034s-1.647.194-2.034-.484l-4.456-7.847c-.388-.678-.194-1.55.58-2.034zm5.813 10.27c.58-.388.872-1.162.484-1.744l-4.456-7.847c-.388-.58-1.163-.775-1.744-.484-.58.388-.872 1.163-.484 1.744l4.456 7.847c.29.58 1.163.872 1.744.484z" class="B"/><path d="M157.325 204.116c.775-.29 1.55 0 1.84.678l7.847 18.697c.29.678-.097 1.55-.775 1.84s-1.55 0-1.84-.678l-7.847-18.697c-.29-.678.097-1.55.775-1.84z" class="C"/><path d="M157.325 204.02c.775-.29 1.647 0 2.034.775l7.847 18.697c.29.775-.097 1.647-.872 1.938s-1.647 0-2.034-.775l-7.847-18.697c-.29-.678.097-1.55.872-1.937zm8.816 21.216c.678-.29.97-1.066.678-1.647l-7.847-18.697c-.29-.678-1.066-.97-1.744-.678s-.97 1.066-.678 1.647l7.847 18.697c.388.678 1.066.97 1.744.678z" class="B"/><path d="M152.58 217.872c.775-.29 1.55.097 1.84.872l2.81 8.525c.29.678-.194 1.55-.872 1.744-.775.29-1.55-.097-1.84-.872l-2.81-8.525c-.29-.678.097-1.453.872-1.744z" class="C"/><path d="M152.482 217.775c.775-.29 1.647.097 1.938.872l2.81 8.525c.29.775-.194 1.647-.97 1.938s-1.647-.097-1.937-.872l-2.81-8.525c-.194-.775.194-1.647.97-1.937zm3.778 11.14c.678-.194 1.066-.97.872-1.647l-2.81-8.525c-.194-.678-.97-.97-1.647-.775s-1.066.97-.872 1.647l2.81 8.525c.194.678.97 1.066 1.647.775z" class="B"/><path d="M141.147 209.057c.775-.194 1.55.29 1.647 1.066l4.07 19.86c.194.775-.388 1.453-1.163 1.647s-1.55-.29-1.647-1.066l-4.07-19.86c-.097-.678.387-1.453 1.162-1.647z" class="C"/><path d="M141.147 208.96c.872-.194 1.647.388 1.84 1.162l4.07 19.86c.194.775-.388 1.647-1.162 1.744-.872.194-1.647-.387-1.84-1.162l-4.07-19.86c-.194-.775.29-1.55 1.162-1.744zm4.553 22.572c.678-.097 1.163-.775 1.066-1.55l-4.07-19.86c-.097-.678-.872-1.162-1.55-.97-.678.097-1.162.775-1.066 1.55l4.07 19.86c.194.678.872 1.066 1.55.97z" class="B"/><path d="M133.785 221.65c.775-.097 1.453.387 1.647 1.162l1.162 8.912c.097.775-.484 1.453-1.26 1.55s-1.453-.388-1.647-1.162l-1.162-8.913c-.097-.775.484-1.453 1.26-1.55z" class="C"/><path d="M133.785 221.553c.872-.097 1.647.484 1.744 1.26l1.162 8.912c.097.775-.484 1.55-1.356 1.647s-1.647-.484-1.744-1.26l-1.163-8.913c-.097-.775.484-1.55 1.356-1.647zm1.453 11.625c.678-.097 1.26-.775 1.162-1.453l-1.162-8.912c-.097-.678-.775-1.162-1.453-1.066s-1.26.775-1.162 1.453l1.162 8.913c.097.678.775 1.162 1.453 1.066z" class="B"/><path d="M123.807 210.8c.775 0 1.453.58 1.453 1.356v20.247c0 .775-.678 1.356-1.453 1.356s-1.453-.58-1.453-1.356v-20.247c.097-.775.678-1.356 1.453-1.356z" class="C"/><path d="M123.807 210.703c.872 0 1.55.678 1.55 1.453v20.247c0 .775-.678 1.453-1.55 1.453s-1.55-.678-1.55-1.453v-20.247c0-.775.775-1.453 1.55-1.453zm0 22.96c.678 0 1.356-.58 1.356-1.26v-20.247c0-.678-.58-1.26-1.356-1.26-.678 0-1.356.58-1.356 1.26v20.247c.097.678.678 1.26 1.356 1.26z" class="B"/><path d="M114.12 221.65c.775.097 1.356.678 1.356 1.453l-.678 9.01c-.097.775-.775 1.356-1.55 1.26s-1.356-.678-1.356-1.453l.678-9.01c.097-.775.775-1.356 1.55-1.26z" class="C"/><path d="M114.12 221.553c.872.097 1.453.775 1.453 1.55l-.678 9.01c-.097.775-.775 1.453-1.647 1.356s-1.453-.775-1.453-1.55l.678-9.01c.097-.872.775-1.453 1.647-1.356zm-.872 11.722c.678 0 1.356-.484 1.356-1.162l.678-9.01c0-.678-.484-1.26-1.26-1.356-.678 0-1.356.484-1.356 1.163l-.678 9.01c0 .678.58 1.26 1.26 1.356z" class="B"/><path d="M106.854 209.057c.775.194 1.26.872 1.162 1.647l-3.972 19.86c-.194.775-.872 1.26-1.647 1.066s-1.26-.872-1.162-1.647l3.972-19.86c.097-.678.872-1.162 1.647-1.066z" class="C"/><path d="M106.854 208.96c.872.194 1.356.97 1.26 1.744l-3.972 19.86c-.194.775-.97 1.356-1.84 1.162s-1.356-.97-1.26-1.744l3.972-19.86c.194-.775.97-1.26 1.84-1.162zm-4.553 22.572c.678.097 1.356-.29 1.55-.97l3.972-19.86a1.37 1.37 0 0 0-1.066-1.55c-.678-.097-1.356.29-1.55.97l-3.972 19.86c-.097.775.388 1.356 1.066 1.55z" class="B"/><path d="M95.23 217.775c.775.194 1.26.97 1.066 1.744l-2.422 8.72c-.194.775-.97 1.162-1.744.97s-1.26-.97-1.066-1.744l2.422-8.72c.194-.775.97-1.162 1.744-.97z" class="C"/><path d="M95.23 217.678c.775.194 1.356 1.066 1.066 1.84l-2.422 8.72c-.194.775-1.066 1.26-1.84 1.066s-1.356-1.066-1.066-1.84l2.422-8.72c.194-.775.97-1.26 1.84-1.066zm-3.197 11.334c.678.194 1.453-.194 1.647-.872l2.422-8.72c.194-.678-.194-1.356-.97-1.55-.678-.194-1.453.194-1.647.872l-2.422 8.72c-.097.678.29 1.356.97 1.55z" class="B"/><path d="M90.482 204.116c.775.29 1.066 1.162.775 1.84l-7.75 18.697c-.29.678-1.162 1.066-1.84.678s-1.066-1.163-.775-1.84l7.75-18.697c.29-.678 1.162-1.066 1.84-.678z" class="C"/><path d="M90.482 204.02c.775.29 1.162 1.162.872 1.938l-7.75 18.697c-.29.775-1.163 1.066-2.034.775-.775-.29-1.162-1.162-.872-1.937l7.75-18.697c.387-.775 1.26-1.162 2.034-.775zm-8.816 21.216c.678.29 1.453 0 1.744-.678l7.75-18.697c.29-.678-.097-1.356-.775-1.647s-1.453 0-1.744.678l-7.75 18.697c-.194.58.097 1.356.775 1.647z" class="B"/><path d="M77.404 210.316c.678.387.97 1.162.678 1.84l-4.07 8.04c-.388.678-1.163.97-1.937.58-.678-.387-.97-1.162-.678-1.84l4.07-8.04c.388-.678 1.162-.97 1.938-.58z" class="C"/><path d="M77.404 210.22a1.48 1.48 0 0 1 .678 2.034l-4.07 8.04a1.48 1.48 0 1 1-2.713-1.356l4.07-8.04a1.48 1.48 0 0 1 2.034-.678zm-5.328 10.56c.678.29 1.453.097 1.744-.58l4.07-8.04c.29-.58 0-1.356-.58-1.744-.678-.29-1.453-.097-1.744.58l-4.07 8.04c-.29.58 0 1.356.58 1.744z" class="B"/><path d="M75.466 195.978c.678.484.872 1.356.388 1.938l-11.238 16.76c-.388.678-1.26.775-1.937.387-.678-.484-.872-1.356-.388-1.937l11.238-16.76c.388-.678 1.26-.872 1.938-.387z" class="C"/><path d="M75.466 195.882c.678.484.872 1.453.484 2.13l-11.238 16.76c-.484.678-1.356.872-2.13.388-.678-.484-.872-1.453-.484-2.13l11.237-16.76c.484-.678 1.453-.872 2.13-.388zM62.68 214.966c.58.388 1.453.29 1.84-.29l11.237-16.76c.388-.58.194-1.356-.387-1.744s-1.453-.29-1.84.29L62.29 213.125c-.387.58-.194 1.453.388 1.84z" class="B"/><path d="M61.322 199.563c.58.484.775 1.356.29 1.938l-5.62 7.072c-.484.58-1.356.678-1.937.194s-.775-1.356-.29-1.937l5.62-7.072c.484-.58 1.356-.678 1.938-.194z" class="C"/><path d="M61.42 199.466c.678.484.775 1.453.29 2.13l-5.62 7.072c-.484.678-1.453.775-2.13.194-.678-.484-.775-1.453-.29-2.13l5.62-7.072c.484-.678 1.453-.775 2.13-.194zm-7.266 9.203c.58.484 1.356.388 1.84-.194l5.62-7.072c.388-.58.29-1.356-.29-1.84s-1.356-.387-1.84.194l-5.62 7.072c-.387.58-.29 1.453.29 1.84z" class="B"/><path d="M62.29 185.032c.58.58.58 1.453 0 1.938L47.954 201.2c-.58.58-1.453.484-1.937 0s-.58-1.453 0-1.937l14.24-14.24a1.4 1.4 0 0 1 2.034 0z" class="C"/><path d="M62.388 184.935a1.52 1.52 0 0 1 0 2.131l-14.338 14.24a1.52 1.52 0 0 1-2.131 0 1.52 1.52 0 0 1 0-2.131l14.337-14.24a1.52 1.52 0 0 1 2.131 0zM46.016 201.2a1.35 1.35 0 0 0 1.841 0l14.337-14.24a1.35 1.35 0 0 0 0-1.841 1.35 1.35 0 0 0-1.841 0l-14.337 14.24c-.484.484-.484 1.26 0 1.84z" class="B"/><path d="M47.76 185.807c.484.58.484 1.453-.097 1.938l-6.878 5.813c-.58.484-1.453.387-1.937-.194s-.484-1.453.097-1.937l6.878-5.812c.58-.484 1.453-.388 1.938.194z" class="C"/><path d="M47.857 185.7c.58.678.484 1.647-.097 2.13l-6.878 5.813c-.58.58-1.55.484-2.13-.194s-.484-1.647.097-2.13l6.878-5.812c.58-.58 1.55-.484 2.13.194zm-8.913 7.653c.484.58 1.26.58 1.84.194l6.878-5.812c.484-.484.58-1.26.097-1.84s-1.26-.58-1.84-.194l-6.878 5.813c-.58.484-.58 1.26-.097 1.84z" class="B"/><path d="M51.635 171.856c.484.678.29 1.55-.387 1.938L34.39 185.032c-.678.387-1.55.194-1.937-.387-.484-.678-.29-1.55.387-1.937l16.856-11.238c.58-.387 1.453-.194 1.938.387z" class="C"/><path d="M51.732 171.856c.484.678.29 1.647-.388 2.13l-16.856 11.237c-.678.484-1.647.29-2.13-.484-.484-.678-.29-1.647.388-2.13L49.6 171.372c.678-.484 1.647-.29 2.13.484zm-19.18 12.69c.388.58 1.163.775 1.744.387l16.856-11.237c.58-.388.775-1.162.29-1.84-.387-.58-1.162-.775-1.744-.387L32.84 182.707c-.58.484-.678 1.26-.29 1.84z" class="B"/><path d="M37.2 169.822c.388.678.194 1.55-.484 1.938l-7.847 4.456c-.678.388-1.55.097-1.937-.58s-.194-1.55.484-1.937l7.847-4.456c.678-.387 1.55-.097 1.938.58z" class="C"/><path d="M37.297 169.725c.387.775.194 1.647-.484 2.034l-7.847 4.456c-.678.388-1.647.097-2.034-.58-.388-.775-.194-1.647.484-2.034l7.847-4.456c.678-.388 1.647-.097 2.034.58zm-10.27 5.813c.388.678 1.163.872 1.744.484l7.847-4.456c.58-.388.775-1.163.484-1.744-.388-.678-1.163-.872-1.744-.484l-7.847 4.456c-.58.29-.775 1.066-.484 1.744z" class="B"/><path d="M43.69 156.938c.29.775 0 1.55-.775 1.84l-18.697 7.75c-.678.29-1.55-.097-1.84-.775-.29-.775 0-1.55.775-1.84l18.697-7.75c.678-.29 1.55 0 1.84.775z" class="C"/><path d="M43.788 156.84c.29.775 0 1.647-.775 2.034l-18.697 7.75c-.775.29-1.647-.097-1.937-.872s0-1.647.775-2.034l18.697-7.75c.775-.29 1.647.097 1.938.872zm-21.216 8.816c.29.678 1.066.97 1.647.775l18.697-7.75c.678-.29.97-1.066.678-1.744s-1.066-.97-1.647-.775l-18.697 7.75c-.678.29-.97 1.066-.678 1.744z" class="B"/><path d="M30.032 152.094c.29.775-.097 1.55-.872 1.84l-8.525 2.81c-.678.29-1.55-.194-1.744-.872-.29-.775.097-1.55.872-1.84l8.525-2.81c.678-.29 1.453.097 1.744.872z" class="C"/><path d="M30.13 151.997c.29.775-.097 1.647-.97 1.938l-8.525 2.81c-.775.29-1.647-.194-1.937-.97s.097-1.647.97-1.937l8.525-2.81c.775-.194 1.647.194 1.938.97zm-11.237 3.68c.194.678.97 1.066 1.647.872l8.525-2.81c.678-.194.97-.97.775-1.647s-.97-1.066-1.647-.872l-8.525 2.81c-.678.29-.97.97-.775 1.647z" class="B"/><path d="M38.75 140.566c.194.775-.29 1.55-1.066 1.647l-19.86 3.875c-.775.194-1.453-.388-1.647-1.162s.29-1.55 1.066-1.647l19.86-3.875c.775-.097 1.55.388 1.647 1.163z" class="C"/><path d="M38.944 140.566c.194.872-.388 1.647-1.163 1.84l-19.86 3.875c-.775.194-1.55-.387-1.744-1.26s.387-1.647 1.163-1.84l19.86-3.875c.775-.194 1.55.387 1.744 1.26zm-22.572 4.36c.097.678.775 1.162 1.453 1.066l19.86-3.875c.678-.097 1.163-.872.97-1.55-.097-.678-.775-1.163-1.453-1.066l-19.86 3.875c-.678.194-1.163.872-.97 1.55z" class="B"/><path d="M26.35 133.107c.097.775-.388 1.453-1.163 1.55l-8.913 1.066c-.775.097-1.453-.484-1.55-1.26s.387-1.453 1.163-1.55l8.912-1.066c.678-.097 1.453.484 1.55 1.26z" class="C"/><path d="M26.447 133.107c.097.872-.484 1.647-1.26 1.744l-8.913 1.066c-.775.097-1.55-.484-1.647-1.356s.484-1.647 1.26-1.744l8.912-1.066c.775-.097 1.55.484 1.647 1.356zm-11.722 1.356c.097.678.775 1.26 1.453 1.162l8.912-1.066c.678-.097 1.163-.775 1.066-1.453s-.775-1.26-1.453-1.163L15.79 133c-.678.097-1.163.775-1.066 1.453z" class="B"/><path d="M37.2 123.7c0 .775-.58 1.453-1.356 1.453H15.597c-.775 0-1.356-.678-1.356-1.453s.58-1.453 1.356-1.453h20.247c.775 0 1.356.678 1.356 1.453z" class="C"/><path d="M37.297 123.7c0 .872-.678 1.55-1.453 1.55H15.597c-.775 0-1.453-.678-1.453-1.55s.678-1.55 1.453-1.55h20.247c.775 0 1.453.678 1.453 1.55zm-22.96-.097c0 .678.58 1.356 1.26 1.356h20.247c.678 0 1.26-.58 1.26-1.356 0-.678-.58-1.356-1.26-1.356H15.597c-.678.097-1.26.678-1.26 1.356z" class="B"/><path d="M26.447 113.925c-.097.775-.678 1.356-1.453 1.356l-9.01-.678c-.775-.097-1.356-.775-1.26-1.55s.678-1.356 1.453-1.356l9.01.678c.678.097 1.26.775 1.26 1.55z" fill="#e2e2e2"/><path d="M26.544 113.925c-.097.872-.775 1.453-1.55 1.453l-9.01-.678c-.775-.097-1.453-.775-1.356-1.647s.775-1.453 1.55-1.453l9.01.678c.775.097 1.356.872 1.356 1.647zm-11.82-.872a1.23 1.23 0 0 0 1.163 1.356l9.01.678c.678 0 1.26-.484 1.356-1.26a1.23 1.23 0 0 0-1.163-1.356l-9.01-.678c-.678 0-1.26.58-1.356 1.26z" class="B"/><path d="M38.944 106.853c-.194.775-.872 1.26-1.647 1.162l-19.86-4.07c-.775-.194-1.26-.872-1.066-1.647s.872-1.26 1.647-1.162l19.86 3.972c.678.194 1.163.97 1.066 1.744z" class="C"/><path d="M39.04 106.853c-.194.872-.97 1.356-1.744 1.26l-19.86-3.972c-.775-.194-1.356-.97-1.163-1.84s.97-1.356 1.744-1.26l19.86 3.972c.775.194 1.26.97 1.163 1.84zM16.47 102.3c-.097.678.29 1.356.97 1.55l19.86 3.972a1.37 1.37 0 0 0 1.55-1.066c.097-.678-.29-1.356-.97-1.55l-19.86-3.972c-.775-.097-1.356.388-1.55 1.066z" class="B"/><path d="M30.226 95.228c-.194.775-.97 1.26-1.744 1.066l-8.72-2.422c-.775-.194-1.162-.97-.97-1.744s.97-1.26 1.744-1.066l8.72 2.422c.775.194 1.162.97.97 1.744z" class="C"/><path d="M30.322 95.228c-.194.775-1.066 1.356-1.84 1.066l-8.72-2.422c-.775-.194-1.26-1.066-1.066-1.84s1.066-1.356 1.84-1.066l8.72 2.422c.775.194 1.26.97 1.066 1.84zm-11.334-3.197c-.194.678.194 1.453.872 1.647l8.72 2.422c.678.194 1.356-.194 1.55-.97.194-.678-.194-1.453-.872-1.647l-8.72-2.422c-.678-.097-1.356.29-1.55.97z" class="B"/><path d="M43.885 90.578c-.29.775-1.163 1.066-1.84.775l-18.697-7.75c-.678-.29-1.066-1.163-.775-1.84.29-.775 1.163-1.066 1.84-.775l18.697 7.75c.775.29 1.066 1.163.775 1.84z" class="C"/><path d="M43.982 90.675c-.29.775-1.163 1.163-1.937.872l-18.697-7.75c-.775-.29-1.066-1.162-.775-2.034.29-.775 1.163-1.163 1.938-.872l18.697 7.75c.775.388 1.066 1.26.775 2.034zM22.766 81.86c-.29.678 0 1.453.678 1.744l18.697 7.75c.678.29 1.356-.097 1.647-.775s0-1.453-.678-1.744l-18.697-7.75c-.678-.194-1.453.097-1.647.775z" class="B"/><path d="M37.588 77.5c-.388.678-1.163.97-1.84.678l-8.04-4.07c-.678-.29-.97-1.162-.58-1.937.387-.678 1.163-.97 1.84-.678l8.04 4.07c.678.388.97 1.26.58 1.938z" class="C"/><path d="M37.685 77.597a1.48 1.48 0 0 1-2.034.678l-8.04-4.07a1.48 1.48 0 0 1-.678-2.034 1.48 1.48 0 0 1 2.034-.678l8.04 4.07c.775.29 1.066 1.26.678 2.034zM27.222 72.27c-.29.678-.097 1.453.58 1.744l8.04 4.07c.58.29 1.356 0 1.744-.58.29-.678.097-1.453-.58-1.744l-8.138-4.07c-.58-.29-1.356-.097-1.647.58z" class="B"/><path d="M51.83 75.66c-.484.678-1.26.872-1.937.388l-16.76-11.14c-.678-.388-.775-1.26-.388-1.937s1.26-.872 1.938-.388L51.538 73.82c.58.388.775 1.26.29 1.84z" class="C"/><path d="M51.926 75.756c-.484.678-1.453.872-2.13.484l-16.76-11.237c-.678-.484-.872-1.356-.387-2.13.484-.678 1.453-.872 2.13-.484l16.76 11.237c.775.484.872 1.453.387 2.13zM32.84 62.97c-.387.58-.29 1.453.29 1.84l16.856 11.237c.58.388 1.356.194 1.744-.388s.29-1.453-.29-1.84L34.585 62.582c-.58-.387-1.356-.194-1.744.388z" class="B"/><path d="M48.244 61.613c-.484.58-1.356.775-1.937.29l-7.072-5.522c-.58-.484-.678-1.356-.194-1.937s1.356-.775 1.938-.29l7.072 5.522c.58.484.678 1.356.194 1.938z" class="C"/><path d="M48.34 61.7c-.484.678-1.453.775-2.13.29l-7.072-5.522c-.678-.484-.775-1.453-.29-2.13s1.453-.775 2.13-.29l7.072 5.522c.678.484.775 1.453.29 2.13zm-9.3-7.266c-.484.58-.388 1.356.194 1.84l7.072 5.522c.58.388 1.356.29 1.84-.29s.387-1.356-.194-1.84l-7.072-5.522c-.58-.388-1.356-.29-1.84.29z" class="B"/><path d="M62.68 62.582c-.58.58-1.453.58-1.937 0L46.307 48.34c-.58-.58-.484-1.453 0-1.937.58-.58 1.453-.58 1.938 0l14.337 14.24c.58.484.58 1.453.097 1.938z" class="C"/><path d="M62.68 62.678a1.52 1.52 0 0 1-2.131 0L46.2 48.438a1.52 1.52 0 0 1 0-2.131 1.52 1.52 0 0 1 2.131 0l14.337 14.24a1.37 1.37 0 0 1 0 2.131zM46.404 46.5a1.35 1.35 0 0 0 0 1.841l14.337 14.24a1.35 1.35 0 0 0 1.841 0 1.35 1.35 0 0 0 0-1.841L48.244 46.403c-.484-.484-1.26-.484-1.84.097z" class="B"/><path d="M61.807 48.147c-.58.484-1.453.484-1.937-.097l-5.91-6.78c-.484-.58-.388-1.453.194-1.937s1.453-.484 1.938.097L62 46.2c.484.484.388 1.356-.194 1.938z" class="C"/><path d="M61.904 48.147c-.678.58-1.55.484-2.13-.097l-5.91-6.78c-.58-.58-.484-1.55.194-2.13s1.55-.484 2.13.097l5.91 6.78c.484.678.484 1.647-.194 2.13zm-7.75-8.816c-.58.484-.58 1.26-.194 1.84l5.91 6.78c.484.484 1.26.58 1.84.097s.58-1.26.194-1.84l-5.91-6.78c-.484-.58-1.26-.58-1.84-.097z" class="B"/><path d="M75.757 51.828c-.678.484-1.55.29-1.937-.388l-11.334-16.76c-.388-.678-.194-1.55.388-1.937.678-.484 1.55-.29 1.938.388l11.237 16.76c.484.678.29 1.55-.29 1.938z" class="C"/><path d="M75.757 51.925c-.678.484-1.647.29-2.13-.387l-11.237-16.76c-.484-.678-.29-1.647.484-2.13.678-.484 1.647-.29 2.13.387l11.237 16.76c.484.775.29 1.647-.484 2.13zM62.97 32.84c-.58.388-.775 1.163-.388 1.744l11.237 16.76c.388.58 1.163.678 1.84.29.58-.387.775-1.163.388-1.744L64.8 33.228c-.388-.58-1.26-.775-1.84-.388z" class="B"/><path d="M77.79 37.49c-.678.387-1.55.194-1.937-.484l-4.456-7.847c-.388-.678-.097-1.55.58-1.937s1.55-.194 1.938.484l4.456 7.847c.29.678.097 1.55-.58 1.938z" class="C"/><path d="M77.79 37.588c-.775.388-1.647.194-2.034-.484L71.3 29.257c-.388-.678-.194-1.647.58-2.034s1.647-.194 2.034.484l4.456 7.847c.388.678.194 1.55-.58 2.034zM71.98 27.32c-.58.387-.872 1.162-.484 1.744L75.95 36.9c.388.58 1.162.775 1.744.484.58-.387.872-1.163.484-1.744l-4.456-7.847c-.29-.58-1.162-.872-1.744-.484z" class="B"/><path d="M90.676 43.885c-.775.29-1.55 0-1.84-.678L80.988 24.5c-.29-.678.097-1.55.775-1.84.775-.29 1.55 0 1.84.678l7.847 18.697c.29.678-.097 1.55-.775 1.84z" class="C"/><path d="M90.676 43.982c-.775.29-1.647 0-2.034-.775L80.794 24.5c-.29-.775.097-1.647.872-1.937s1.647 0 2.034.775l7.847 18.697c.29.678-.097 1.55-.872 1.938zM81.86 22.766c-.678.29-.97 1.066-.678 1.647L89.03 43.1c.29.678 1.066.97 1.744.678s.97-1.066.678-1.647l-7.847-18.697c-.388-.678-1.066-.97-1.744-.678z" class="B"/><path d="M95.422 30.128c-.775.29-1.55-.097-1.84-.872l-2.81-8.525c-.29-.678.194-1.55.872-1.744s1.55.097 1.84.872l2.81 8.525c.29.678-.097 1.453-.872 1.744z" class="C"/><path d="M95.52 30.225c-.775.29-1.647-.097-1.937-.872l-2.81-8.525c-.29-.775.194-1.647.97-1.937s1.647.097 1.938.872l2.81 8.525c.194.775-.194 1.647-.97 1.938zm-3.778-11.14c-.678.194-1.066.97-.872 1.647l2.81 8.525c.194.678.97.97 1.647.775s1.066-.97.872-1.647l-2.81-8.525c-.194-.678-.97-1.066-1.647-.775z" class="B"/><path d="M106.854 38.944c-.775.194-1.55-.29-1.647-1.066l-4.07-19.86c-.194-.775.388-1.453 1.162-1.647s1.55.29 1.647 1.066l4.07 19.86c.097.678-.388 1.453-1.162 1.647z" class="C"/><path d="M106.854 39.04c-.872.194-1.647-.388-1.84-1.163l-4.07-19.86c-.194-.775.388-1.647 1.163-1.744.872-.194 1.647.387 1.84 1.163l4.07 19.86c.194.775-.29 1.55-1.162 1.744zM102.3 16.47c-.678.097-1.162.775-1.066 1.55l4.07 19.86c.097.678.872 1.163 1.55.97.678-.097 1.162-.775 1.066-1.55l-4.07-19.86c-.194-.678-.872-1.066-1.55-.97z" class="B"/><path d="M114.216 26.35c-.775.097-1.453-.388-1.647-1.163l-1.162-8.913c-.097-.775.484-1.453 1.26-1.55s1.453.387 1.647 1.163l1.162 8.912c.097.775-.484 1.453-1.26 1.55z" class="C"/><path d="M114.216 26.447c-.872.097-1.647-.484-1.744-1.26l-1.162-8.913c-.097-.775.484-1.55 1.356-1.647s1.647.484 1.744 1.26l1.163 8.912c.097.775-.484 1.55-1.356 1.647zm-1.453-11.625c-.678.097-1.26.775-1.163 1.453l1.163 8.913c.097.678.775 1.163 1.453 1.066s1.26-.775 1.162-1.453l-1.162-8.912c-.097-.678-.775-1.163-1.453-1.066z" class="B"/><circle fill-opacity=".2" fill="url(#D)" cx="124.679" cy="123.903" r="114.7"/><path d="M204.116 51.15l-92.612 59.288v.097l-.097.097L53.67 205.86l84.96-68.49 65.487-86.22z" fill-opacity=".05" filter="url(#E)"/><path d="M202.372 45.628l-91.45 65.003 27.125 26.93 64.325-91.934" fill="#cd151e"/><path d="M111.02 110.438l13.66 13.466 77.694-78.275-91.353 64.81z" fill="#fa5153"/><path d="M111.02 110.438l27.125 26.93-91.45 65.003 64.325-91.934z" fill="#acacac"/><path d="M46.694 202.372l77.984-78.47-13.66-13.466-64.325 91.934z" fill="#eee"/></g></svg>