<svg width="12" height="12" viewBox="0 0 12 12" fill="none" xmlns="http://www.w3.org/2000/svg">
<path fill-rule="evenodd" clip-rule="evenodd" d="M5.9999 9C5.6894 9 5.4374 8.748 5.4374 8.4375C5.4374 8.127 5.6894 7.875 5.9999 7.875C6.3104 7.875 6.5624 8.127 6.5624 8.4375C6.5624 8.748 6.3104 9 5.9999 9ZM5.6249 7.125H6.3749V3.75H5.6249V7.125ZM11.1824 9.72638L6.46865 1.395C6.36702 1.215 6.18327 1.125 5.9999 1.125C5.81652 1.125 5.63277 1.215 5.53115 1.395L0.817397 9.72638C0.620522 10.074 0.878522 10.5 1.28615 10.5H10.7136C11.1213 10.5 11.3793 10.074 11.1824 9.72638Z" fill="#DF0101"/>
</svg>
