<svg width="16" height="16" viewBox="0 0 16 16" fill="none" xmlns="http://www.w3.org/2000/svg">
<path fill-rule="evenodd" clip-rule="evenodd" d="M7.99986 12C7.58586 12 7.24986 11.664 7.24986 11.25C7.24986 10.836 7.58586 10.5 7.99986 10.5C8.41386 10.5 8.74986 10.836 8.74986 11.25C8.74986 11.664 8.41386 12 7.99986 12ZM7.49986 9.5H8.49986V5H7.49986V9.5ZM14.9099 12.9685L8.62486 1.86C8.48936 1.62 8.24436 1.5 7.99986 1.5C7.75536 1.5 7.51036 1.62 7.37486 1.86L1.08986 12.9685C0.827363 13.432 1.17136 14 1.71486 14H14.2849C14.8284 14 15.1724 13.432 14.9099 12.9685Z" fill="#DF0101"/>
</svg>
